<?xml version="1.0" encoding="UTF-8"?>
<svg id="uuid-a7e545bc-708d-4ba4-97ac-b84b80ba78d4" xmlns="http://www.w3.org/2000/svg" version="1.1" viewBox="0 0 458.1 287.6">
  <!-- Generator: Adobe Illustrator 29.1.0, SVG Export Plug-In . SVG Version: 2.1.0 Build 142)  -->
  <defs>
    <style>
      .st0 {
        fill: #c79b66;
      }

      .st1 {
        fill: #a41546;
      }

      .st2 {
        fill: #fff;
      }

      .st3 {
        fill: #c79c66;
      }
    </style>
  </defs>
  <g id="uuid-7d671ecd-973c-41bb-9d43-a50ea2540364">
    <g>
      <polygon class="st3" points="458.1 134 142.6 134 142.6 137.3 458.1 137.3 458.1 135.4 458.1 134"/>
      <path class="st2" d="M122,26.6c1.1-.3,2-.9,3-1.5,1.3-.7,1.3-1.7.1-2.5-.8-.6-1.6-1.1-2.3-1.7-.4-.3-.5-.6-.4-1.1.5-2.1.9-4.3,1.3-6.4.1-.6.2-1.3-.5-1.7-.7-.4-1.2,0-1.7.4-1.1.9-2.2,1.8-3.4,2.9.2-.7.2-1.1.4-1.5.2-.6.2-1.2-.3-1.6-.5-.4-1.1-.3-1.7,0-1.8.8-3.7,1.5-5.6,2.3-.3.1-.6.2-.9.3-.6.1-.9-.1-.9-.8,0-.9,0-1.8,0-2.6,0-1-.6-1.6-1.6-1.8-.3,0-.7,0-1.1,0-6.3,0-12.6,0-18.9,0-.8,0-1.1-.2-1.1-1,0-2,0-4.1,0-6.1,0-1.2-.7-1.9-1.9-2C84.1,0,83.9,0,83.7,0h-42.5C40.9,0,40.7,0,40.5,0c-1.2,0-1.8.7-1.8,1.9,0,1.9,0,3.9,0,5.8s-.5,1.4-1.4,1.4h-19.2c-1.5,0-2.2.7-2.2,2.1,0,.6,0,1.2,0,1.7,0,.9-.1.9-.9.6-1.5-.6-3-1.2-4.4-1.8-.6-.2-1.1-.4-1.6.1-.5.5-.4,1-.3,1.6,0,.4.3.8.1,1.4-1.2-1-2.2-1.9-3.3-2.8-.5-.4-1-.7-1.7-.2-.6.4-.6,1-.5,1.6.4,2.1.8,4.2,1.3,6.2.1.7,0,1.1-.6,1.5-.8.5-1.6,1.1-2.4,1.8-.8.7-.8,1.6,0,2.1.9.6,1.9,1.2,2.9,1.5.8.3.7.5.4,1.1-.8,1.9-1.6,3.8-2.4,5.7-.4.9-.2,1.6.5,1.9.6.2.7.6.7,1.2,0,3.8,0,7.6,0,11.4,0,.5-.1.9-.7,1.2-2.3,1.3-2.4,4.3-.2,5.7.6.4.8.8.8,1.4,0,10.4,0,20.9,0,31.3,0,.7-.2,1-.8,1.4-2.3,1.3-2.2,4.4,0,5.7.6.3.7.7.7,1.2,0,10.5,0,20.9,0,31.4,0,.6-.2.9-.7,1.2-2.4,1.4-2.4,4.4,0,5.7.5.3.7.6.7,1.2,0,10.5,0,21,0,31.5,0,.6-.2.9-.7,1.2-2.3,1.3-2.3,4.4,0,5.7.5.3.7.7.7,1.2,0,1.3,0,2.5.1,3.8.6,4.6,4.5,8.1,9.1,8.2,1.8,0,3.7,0,5.5,0,.5,0,.9.1,1.1.6.6,1.2,1.6,1.9,3,1.9,1.4,0,2.4-.7,2.9-1.9.2-.4.5-.6.9-.6.9,0,1.8,0,2.6,0,.6,0,.8.2.8.8,0,1.1,0,2.2,0,3.3,0,1,.6,1.9,1.5,2,1.4.2,2.8.2,4.1,0,.5-.1,1-.1,1.4,0,3.3,1,6.6,2.1,9.8,3.1.7.2,1.4.3,2.1.2,1.2-.2,2.5-.3,3.7-.4,2.1-.2,4.2-.4,6.3-.7.6,0,1.1-.4,1.3-.9.2-.6,0-1.1-.4-1.6-.2-.2-.5-.5-.7-.7-.6-.5-.4-.7.2-.9.5-.1,1-.3,1.5-.5,1-.4,1.4-.9,1.4-2,0-1.2,0-2.4,0-3.6,0-.9-.4-1.5-1.2-1.9-.8-.3-1.5-.7-2.2-1.1-.6-.2-.7-.4-.1-.8.7-.5,1.2-1.1,1.8-1.7.3-.3.5-.7.3-1.1-.2-.5-.5-.7-1-.7-3.6-.4-7.2-.8-10.8-1.1-.8,0-1.5,0-2.2.3-3.4,1.1-6.8,2.1-10.2,3.2-.3,0-.6.2-.9.1-1.2-.2-2.4-.1-3.5,0-1.4.1-2.1.9-2.1,2.2,0,.7,0,1.5,0,2.2,0,.5-.2.7-.8.7-.9,0-1.8,0-2.7,0-.4,0-.7-.2-.9-.6-.6-1.2-1.5-1.9-3-1.9-1.4,0-2.4.7-3,1.9-.2.4-.5.6-1,.6-1.9,0-3.8,0-5.6,0-3.7,0-6.7-2.7-7.5-6.3-.3-1.3,0-2.7-.1-4,0-.6.2-1,.7-1.3,2.4-1.5,2.3-4.4-.1-5.8-.6-.3-.6-.7-.6-1.2v-31.3c0-.5,0-.9.6-1.2,1.2-.5,1.8-1.6,1.8-2.8,0-1.3-.6-2.4-1.7-3-.6-.3-.7-.7-.7-1.3,0-10.4,0-20.8,0-31.2,0-.6.2-1,.8-1.4,2.3-1.3,2.3-4.4,0-5.7-.6-.3-.7-.8-.7-1.4,0-10.4,0-20.8,0-31.2,0-.7.2-1.1.8-1.4,2-1.2,2.4-4.1.5-5.2-1.2-.8-1.3-1.6-1.2-2.8,0-.3,0-.5,0-.8,0-.5.2-.8.7-1.1,1.9-1,3.8-2,5.7-3.1,1-.6,1.1-.5,1.1.6,0,5.6,0,11.1-.1,16.7,0,32.6,0,65.2,0,97.8s0,1.6.1,2.4c.7,6,5.2,10.9,11.1,12,4.4.8,8.8.8,13.2,1.1,3.5.2,7.1.5,10.6,1,4.8.8,9.4,2.1,13.7,4.3,1.2.7,2.4.7,3.6,0,2-1.1,4.1-1.9,6.2-2.6,6-1.9,12.3-2.3,18.5-2.6,3.4-.2,6.9-.4,10.3-.9,3.6-.5,6.7-2.1,9.2-4.7,3.1-3.2,4.5-7.1,4.5-11.6,0-29.3,0-58.6,0-87.9v-25.1c0-1,0-1,.9-.6,1.5.8,2.8,1.7,4.4,2.3,1.9.8,2.6,2,2.3,3.9,0,.5-.2.9-.7,1.2-2.3,1.2-2.4,4.4-.2,5.7.8.4.9.9.9,1.6,0,10.3,0,20.7,0,31,0,.7-.1,1.2-.8,1.5-1.1.6-1.7,1.6-1.7,2.9,0,1.3.7,2.2,1.8,2.8.6.3.7.6.7,1.2v31.7c0,.4-.1.7-.5.8-1.3.6-1.9,1.6-1.9,2.9,0,1.4.7,2.4,1.9,3,.5.2.6.6.6,1v31.6c0,.5-.2.8-.7,1.1-1.2.6-1.8,1.6-1.8,2.9,0,1.3.6,2.3,1.8,2.9.5.2.6.5.6,1,0,1,0,2,0,3,0,3.7-2.8,6.9-6.5,7.5-2.3.4-4.7,0-7,.1-.4,0-.6-.3-.8-.6-.6-1.2-1.6-1.9-3-1.8-1.4,0-2.4.7-2.9,1.9-.2.4-.4.6-.8.5-1,0-1.9,0-2.9,0-.5,0-.7-.2-.7-.7,0-.9,0-1.8,0-2.7,0-1.1-.6-1.9-1.7-2.1-1.3-.2-2.6-.2-3.8.1-.5.1-.9.1-1.4,0-3.2-1-6.5-2-9.7-3.1-.9-.3-1.7-.3-2.6-.2-2,.2-4.1.4-6.1.6-1.2.1-2.4.2-3.6.4-.6,0-1.1.4-1.3,1-.2.6,0,1.1.5,1.6.3.3.6.6.8.8.3.3.3.5-.1.7-.6.2-1.2.4-1.8.6-1,.3-1.4,1-1.4,2,0,1,0,2,0,3.1,0,1.4.5,2.2,1.8,2.7.8.3,1.6.7,2.1,1-.6.7-1.1,1.4-1.7,2.1-.4.4-.8.8-.6,1.4.2.6.8.7,1.4.8,3.2.3,6.5.6,9.7,1,1.3.1,2.4,0,3.6-.4,3.2-1.1,6.3-2,9.5-3,.3,0,.6-.2.8-.1,1.1.2,2.3,0,3.4,0,1.6,0,2.3-.7,2.3-2.3,0-.9,0-1.8,0-2.6,0-.7.2-1,.9-1,.8,0,1.6,0,2.4,0,.6,0,.9.1,1.2.7.6,1.1,1.5,1.8,2.8,1.8,1.3,0,2.4-.5,2.9-1.8.3-.6.6-.7,1.2-.7,1.8,0,3.5,0,5.3,0,5.3,0,9.3-4.1,9.3-9.3,0-.9,0-1.7,0-2.6,0-.6.2-1,.8-1.4,1.1-.6,1.7-1.5,1.7-2.8,0-1.3-.6-2.3-1.7-2.9-.6-.3-.8-.7-.8-1.4,0-10.4,0-20.8,0-31.2,0-.7.2-1.1.8-1.4,1.1-.6,1.7-1.6,1.7-2.9,0-1.3-.6-2.3-1.7-2.8-.7-.3-.8-.7-.8-1.4,0-10.4,0-20.7,0-31.1,0-.7.2-1.1.8-1.4,1.1-.6,1.7-1.6,1.7-2.8,0-1.3-.6-2.3-1.7-2.8-.7-.3-.8-.8-.8-1.5,0-8.6,0-17.1,0-25.7v-5.6c0-.5,0-.8.6-1.1,1.3-.5,1.9-1.5,1.9-2.9,0-1.4-.7-2.4-1.9-3-.4-.2-.6-.5-.6-.9v-11.9c0-.3,0-.5.3-.7,1.3-.8,1.4-1,.8-2.4-.8-1.9-1.6-3.8-2.3-5.6-.1-.3-.3-.5.2-.7M58.3,186.2c.1-.4-.3-1.2.6-1.2,1,0,.5.8.7,1.3,0,.3,0,.5,0,.8,0,.5-.3.6-.7.6-.4,0-.6-.2-.6-.6v-.9M38.9,180.9c2.9-.9,5.7-1.8,8.6-2.7.8-.2,1.5,0,2.2,0,2.7.2,5.4.5,8,.8.2,0,.4,0,.4.2.1.2,0,.3-.2.5-.3.3-.7.3-1.1.2-1.8-.3-3.6-.6-5.4-1-.6-.1-1.1,0-1.7.2-3.9,1.9-7.8,3.9-11.7,5.8-.7.3-1,.1-1-.6v-.9c0-1.9,0-1.9,1.8-2.5M56.4,182.1c.6,0,1,.5,1,1.2,0,.5,0,.9-.7.9-.9,0-.5-.7-.7-1.2.2-.3-.2-.9.4-.9M57.3,186.4c0,.3,0,.6,0,.9,0,.4-.3.4-.6.5-.3,0-.7,0-.7-.4,0-.6,0-1.2,0-1.8s.3-.5.6-.5.6.1.6.5c0,.3,0,.6,0,.9M56.1,190v-.7c0-.2,0-.4.4-.5s.6-.1.8.1c.3.3.1,1.8-.3,2-.6.3-.8.2-.9-.5v-.5h0ZM53.8,191c0-.2,0-.4,0-.7h0v-.9c0-.5.2-.6.7-.6.4,0,.6.2.6.6,0,.5,0,1,0,1.6,0,.6-.3.8-.8.8-.6,0-.4-.5-.4-.8M54.4,187.8c-1,0-.6-.8-.6-1.3,0-.3,0-.6,0-.8,0-.4.2-.6.6-.7.5,0,.7.2.7.6v.9c-.2.4.4,1.2-.6,1.2M53.8,182.5c0-.2,0-.5,0-.7,0-.3,0-.7.3-.7.4,0,.8.1.9.6,0,.7,0,1.4,0,2.1,0,.4-.3.4-.6.4s-.6,0-.6-.4c0-.4,0-.8,0-1.1h0M51.6,189.4c0-.4,0-.7.5-.7s.7.1.7.6v2.1c0,.5-.3.6-.7.6-.5,0-.4-.3-.4-.6,0-.4,0-.8,0-1.1h0c0-.3,0-.6,0-.9M52.1,187.8c-.5,0-.6-.3-.6-.7v-1.4c0-.5.2-.7.7-.7.5,0,.6.3.6.7v1.3c0,.5-.2.7-.7.7M51.5,182.4v-1.1c0-.3.1-.6.5-.6s.7.1.7.6c0,.8,0,1.5,0,2.3s-.2.5-.6.5-.7-.1-.7-.5c0-.4,0-.8,0-1.2h0ZM50.6,187.2c0,.4-.2.6-.6.6s-.7-.1-.7-.6v-1.6c0-.4.2-.6.6-.6.4,0,.7.2.7.6v.8h0v.7M50,184.1c-.5,0-.7-.2-.7-.6v-1.8c0-.6.4-.7.9-.9.3-.1.4.1.4.4,0,.4,0,.8,0,1.2h0v1.1c0,.4-.2.6-.6.6M49.3,189.2c0-.4.4-.4.7-.4s.6,0,.6.4c0,.4,0,.9,0,1.3h0c0,.2,0,.5,0,.7,0,.3.2.7-.2.7-.4,0-.9-.1-1-.7,0-.7,0-1.4,0-2.1M48.3,182.9c-.1.5.2,1.2-.7,1.2-.8,0-.6-.5-.6-1,0-.7.5-1.4,1-1.2.6.1.2.7.3,1M47.9,190.9c-.6,0-1-.5-.9-1.2,0-.4,0-.9.6-.9.9,0,.6.7.7,1.2-.2.3.3.9-.4.9M47,185.7c0-.5.1-.7.7-.7s.7.3.6.7v.7h0c0,.3,0,.6,0,.9,0,.4-.3.5-.6.5s-.6-.1-.6-.5c0-.5,0-1,0-1.6M46.1,187.2c0,.4-.2.6-.6.6s-.6-.2-.6-.6v-1.6c0-.4.2-.5.6-.5s.7.1.7.5c0,.6,0,1.1,0,1.6M43.8,185.6v.8h0c0,.3,0,.6,0,.9,0,.4-.3.5-.6.5s-.6,0-.6-.5c0-.6,0-1.1,0-1.7,0-.4.2-.6.6-.6s.6.1.6.6M41.5,187.1c0,.5-.2.7-.6.4-.5-.3-1-.5-1.5-.8-.4-.2-.4-.4,0-.6.4-.2.9-.4,1.3-.7.8-.4.8-.3.8.5v1.1M37.1,188.4c0-1,0-1,.9-.6,3.6,1.8,7.2,3.5,10.7,5.3,1.3.6,2.5.9,3.9.5,1.4-.3,2.8-.5,4.1-.8.6-.1,1.2.1,1.7.8-2.2.2-4.4.5-6.5.7-.5,0-1,0-1.5.2-1.8.4-3.4,0-5.1-.6-2.4-.8-4.9-1.6-7.3-2.3-.7-.2-1.1-.5-1-1.3,0-.6,0-1.3,0-1.9M32.3,181.6c.8,0,1.6,0,2.4,0,.6,0,.8.4.8,1v4c0,1.3,0,2.8,0,4.1,0,.6-.3.9-.9.9-.7,0-1.5,0-2.2,0s-.8-.3-.8-.8v-8.3c0-.5.3-.8.8-.9M22.6,184.4c.9,0,1.7.8,1.7,1.7,0,.9-.8,1.7-1.7,1.7-.9,0-1.7-.8-1.7-1.7,0-.9.7-1.7,1.6-1.7M69.4,179c2.9-.3,5.8-.6,8.8-.9.4,0,.9,0,1.3.1,3,1,6.1,1.9,9.1,2.9,1.3.4,1.3.4,1.3,1.8v.6c0,1.4-.6,1.7-1.8,1.1-3.6-1.8-7.2-3.6-10.9-5.4-.6-.3-1.2-.4-1.8-.3-1.7.4-3.5.6-5.2.9-.3,0-.6.1-.8,0-.3,0-.7-.3-.7-.6,0-.4.5-.3.7-.3M87.8,186.6c-.2.1-.4.2-.7.3-.6.2-1.2.9-1.6.6-.5-.4-.1-1.4-.2-2.1,0-.2,0-.3.4-.3.6.3,1.3.7,2,1,.2.1.1.3,0,.4M84.3,186.4v.8c0,.4-.2.5-.6.5s-.6-.2-.6-.5v-1.6c0-.4.2-.6.6-.6.4,0,.5.2.5.6v.8M82.2,187.1c0,.5-.2.7-.7.7s-.6-.3-.6-.7v-.7h0v-.8c0-.4.3-.5.7-.5s.6.2.6.6v1.5M78.6,189.9c0-.5-.2-1.1.7-1.2.7,0,.7.5.7,1,0,.7-.5,1.3-1,1.2-.6-.1-.2-.7-.3-1M79.9,187.1c0,.5-.2.6-.7.6-.4,0-.6-.2-.6-.6v-1.4c0-.5,0-.8.7-.8.5,0,.6.3.6.8v.6h0v.8M79.2,184c-.9,0-.6-.7-.7-1.2.2-.3-.2-.9.3-.9s1.1.4,1,1.2c0,.4,0,.9-.6.9M76.4,190.4h0v-1.1c0-.5.3-.6.7-.6.4,0,.6.2.6.6,0,.6,0,1.1,0,1.7,0,.2,0,.4-.2.4-.2.2-.6.5-.9.4-.3,0-.2-.5-.2-.7,0-.3,0-.6,0-.8M77.7,186.4h0v.8c0,.4-.2.5-.6.5s-.7,0-.7-.5c0-.6,0-1.1,0-1.6s.3-.6.7-.6c.4,0,.6.2.6.6v.8M77.7,183.5c0,.4-.3.5-.6.5s-.6-.1-.6-.5c0-.4,0-.8,0-1.2h0c0-.2,0-.4,0-.7,0-.3-.2-.8.3-.8.4,0,.9.2.9.7,0,.6,0,1.3,0,2M74.1,185.6c0-.4.2-.6.6-.6s.7.1.7.5v1.6c0,.4-.2.6-.6.6-.4,0-.7-.2-.7-.6v-.8h0v-.7M74.1,189.3c0-.4.3-.5.7-.5.3,0,.6.1.6.5v1.1h0v1.1c0,.3,0,.7-.4.6-.4,0-.8,0-.8-.6v-2.2M75.4,182.2v1.1c0,.4-.2.6-.6.6s-.6-.1-.6-.6v-2.1c0-.6.4-.7.8-.7.6,0,.4.4.4.7,0,.3,0,.6,0,.9h0ZM71.8,186.4c0-.3,0-.5,0-.8,0-.4.2-.6.6-.6s.7.1.7.6v.9c-.1.4.4,1.3-.7,1.2-1,0-.5-.8-.6-1.3M71.8,181.9c0-.6.3-.8.8-.8.6,0,.5.4.5.8,0,.2,0,.4,0,.6v.7c0,.4-.1.7-.6.8-.5,0-.7-.3-.7-.7,0-.5,0-.9,0-1.4M71.8,189.2c0-.4.3-.4.6-.4s.6,0,.7.5c0,.3,0,.7,0,1h0v.7c0,.3,0,.7-.5.7-.4,0-.8-.1-.8-.6,0-.6,0-1.3,0-1.9M70.6,190.8c-.6,0-1-.5-1-1.2s0-.8.6-.8c.9,0,.6.7.7,1.2-.1.3.2.8-.3.8M70.2,184c-.1,0-.3,0-.4-.1-.4-.3-.2-1.8.3-2,.6-.3.8-.2.8.5v.5c0,.4.3,1.2-.7,1.2M70.3,185c.6,0,.6.4.6.8v1.2c0,.5-.2.7-.7.7-.5,0-.6-.3-.6-.8v-1.2c0-.5,0-.8.7-.8M68.6,186.4c0,.3,0,.6,0,.9,0,.4-.3.5-.6.5s-.6,0-.6-.5c0-.6,0-1.1,0-1.7s.2-.6.6-.6.6.1.6.6v.8h0M89.2,191.5c-3.3,1-6.6,2.1-9.8,3.1-.9.3-1.8,0-2.6,0-2.6-.3-5.1-.5-7.7-.8-.1,0-.3,0-.4-.2.3-.5.6-.8,1.3-.6,1.8.4,3.5.6,5.3.9.7.1,1.4,0,2.1-.3,3.9-1.9,7.8-3.9,11.8-5.8.8-.4.8-.4.8.5s0,1.5,0,2.3c0,.5-.2.8-.7.9M95.4,190.4c0,.6-.3.8-.9.8-.7,0-1.3,0-2,0-.8,0-1.1-.3-1.1-1.1,0-1.3,0-2.6,0-4s0-2.6,0-3.9c0-.8.3-1,1-1,.7,0,1.4,0,2.1,0,.6,0,.9.2.9.8v8.3M104.2,187.7c-.9,0-1.6-.7-1.6-1.7s.7-1.7,1.7-1.7c.9,0,1.7.8,1.6,1.7,0,.9-.8,1.7-1.7,1.6M121.6,13.6c.2-.1.3-.5.6-.3s.1.4,0,.7c-.3,1.7-.8,3.4-1,5.2-.2.9-.6,1.2-1.4,1.2-1.9,0-3.8.2-5.7.3-2.3.1-4.6.2-6.9.4h0c-.3,0-.6,0-.8,0-.8,0-1.2-.4-1.1-1.2,0-.5.5-.4.8-.5,1.4,0,2.8-.2,4.3-.2,1.2,0,2.4,0,3.6-.2.4,0,.7-.2,1.1-.4,2.4-1.4,4.4-3.3,6.5-5.1M93.9,24.1c-3.2-.5-6.4-1.1-9.6-1.6-.5,0-.8-.2-.8-.8,0-.6.2-.9.8-.9.3,0,.6,0,.8,0h0c2.1.1,4.2.3,6.2.4.4,0,.8,0,1.2,0s.5-.3.6-.7c0-.4-.2-.5-.5-.5-.6,0-1.2-.2-1.8-.2s-.7-.4-.7-.9,0-.9.7-.9c.9,0,1.9-.2,2.7.2.9.4,1.6,1.3,2.5,1.9,0,0,0,.4,0,.6,0,.5.3.9.8,1.1,1.4.4,2.8.8,4.2.5.9-.2,1.7-.6,2.4-1.2.2-.1.3-.5.6-.3.2.1.2.4.2.7.2,2.1-.5,4-1.7,5.7-1.2,1.6-2.4,2.3-4.6,1.5-3.7-1.3-7.5-2.3-11.3-3.4-.3,0-.6-.2-.8-.3-.3-.2-.6-.6-.5-1,.1-.4.6-.2.9-.1,2.5.4,5.1.8,7.6,1.3.4,0,.8.1.8-.5,0-.6-.2-.7-.7-.8M97.3,20.4c0-.3.2-.3.5-.4,1.8-.4,3.5-.8,5.3-1.2.2,0,.3,0,.5,0,.1.2,0,.4,0,.5-.9,1.1-1.9,1.8-3.5,1.9-.6-.1-1.4-.3-2.2-.4-.2,0-.5-.1-.5-.5M102.6,29.3c.3-.2.5,0,.6.3,1.4,1.7,2.7,3.3,4.1,5,.3.4.2,1.7-.2,2.1,0,0-.2.1-.3.1s-.3,0-.4,0c-1.6-.3-2.7-1.3-3.2-3-.3-1.2-.7-2.5-1-3.6,0-.5,0-.7.3-.8M107.3,32.6c-.9-1.5-2.2-2.8-3.3-4.1-.4-.5-.1-.8,0-1.1.3-.4.5-.2.8,0,3.4,2,6.9,4.1,10.3,6.1.4.2.6.4,0,.8-.5.3-.9.7-1.3,1.1-.2.2-.4.3-.9.2-1.9-.7-4.3-.6-5.8-2.9M114.8,31.7c-3.1-1.9-6.2-3.7-9.4-5.5-.3-.2-.7-.4-.4-.9,0-.1.2-.3.4-.2.1,0,.3.1.4.2,3.1,1.9,6.2,3.7,9.3,5.6.3.2.8.2.6.7-.2.5-.6.4-1,.1M109.6,15.6c.6,0,1.2-.1,1.8-.4,1.6-.7,3.2-1.3,4.8-2,.2-.1.5-.3.8-.1.3.2,0,.5,0,.8,0,.2-.1.4-.1.6,0,1.6-1.1,2.5-2.4,3.2-.2.1-.4.2-.7.2-2.7.1-5.4.2-8.1.4-.4,0-.9,0-1.2-.4-.5-.5-1.1-.4-1.6-.2-1.7.4-3.5.8-5.2,1.2-.7.2-1.3,0-2.1-.5,1.4-.8,2.8-1.6,4.1-2.3.2-.1.5-.1.7-.1,3.1-.1,6.2-.2,9.3-.3M17.6,11.8c0-1,0-1.1,1.1-1.1h19.2c1.8,0,2.4-.6,2.4-2.4,0-1.9,0-3.8,0-5.7,0-.7.2-1,.9-1,14.2,0,28.4,0,42.5,0,.7,0,.9.3.9,1,0,1.9,0,3.8,0,5.7s.5,2.4,2.5,2.4h19.6c.4,0,.6.2.6.6v2.4c0,.4-.2.6-.6.6-.5,0-1,.1-1.6.1-1.8,0-3.5.1-5.3.2-.4,0-.8.2-1.2.4-.9.5-1.8,1-2.6,1.5-.5.3-1.1.5-1.7.4-1.3,0-2.7,0-4.1,0-1,0-1.4.4-1.4,1.4,0,.2,0,.3,0,.5,0,.8-.3,1-1,.9-1.3-.1-2.7-.2-4-.3-1.2,0-1.7.4-1.7,1.6,0,.4,0,.8,0,1.2,0,.4.1.8.5.9.9.4,1.2,1.2,1.6,2,.3.7.8,1.1,1.6,1.3,4.5,1.3,9,2.6,13.6,3.9.2,0,.4.2.6.1,1-.2,1.2.5,1.4,1.2.4,1.4.8,2.9,1.2,4.3.2.6.5,1,1,1.1,1.4.3,2.7,1,4.2.7.1,0,.3,0,.5.1,1.2.6,2.4,1.3,3.6,1.9.3.2.5.5.5.9,0,4.3,0,8.5,0,12.8,0,0,0,0,0,.2-.3-.2-.5-.5-.7-.7-5.8-7.3-11.7-14.7-17.5-22-.6-.8-1.4-1.1-2.4-1-.8,0-1.6.1-2.4.2-.8,0-1.3.5-1.9,1-2.6,2.2-4.4,4.9-6,7.8-.6,1-1.2,1.4-2.4,1.3-2.3-.1-4.6-.1-6.8-.2-.9,0-1.7.2-2.3.9-.5.6-1.1.7-1.8.3-.2,0-.4-.1-.6-.2-1.8-1-3.8-.7-5.7-.6-.5,0-1,.3-1.4.5-.7.5-1.4.9-2,1.4-.5.4-1,.4-1.4-.2-1.3-1.6-3.5-1.4-4.7.3-.8,1.2-1.7,2.3-2.5,3.5-.6.9-1,.9-1.8.2-3.5-2.7-6.9-5.3-10.3-8-1-.8-2-1.6-3.1-2.4-.7-.6-1.5-.6-2.4-.5-2.4.4-4,1.7-5.4,3.7-3.7,5.2-7.6,10.2-11.5,15.2-.2.2-.2.5-.6.6-.2-.2-.1-.5-.1-.8,0-4.3,0-8.7,0-13,0-.7.1-1.2.9-1.5.3-.1.6-.3.9-.5,1.7-1.4,3.9-1.3,5.9-1.6,1.5-.3,2.3-.9,2.6-2.4.3-1.3.7-2.7,1.1-4,.1-.4.2-.7.8-.5.4.1.8,0,1.1-.2,4.3-1.3,8.7-2.6,13-3.8,1.1-.3,1.8-.8,2.2-1.9.3-.6.5-1.2,1.2-1.5.4-.1.6-.6.6-1v-1.2c0-1.4-.4-1.8-1.8-1.7-1.3,0-2.5.1-3.8.3-.9,0-1,0-1-.9,0-1.6-.3-1.9-1.9-1.9s-1.5,0-2.3,0c-1.5.1-2.8,0-4-1-1.7-1.4-3.8-1.4-5.9-1.4-1.9,0-3.7-.1-5.6-.2-.7,0-.9-.3-.9-.9,0-.6,0-1.1,0-1.6M78.7,51.5c-1.1-.7-2.3-1.2-3.6-1.3-3.2-.1-6-1.6-8.6-3.3-1.6-1-3.2-1.1-4.9-1-.3,0-.6.2-.9.4-1,.6-2,1.2-3,1.9-3,2.2-6.4,3.5-9.8,4.7-.3,0-.5.2-.8.3-2.8,1.3-5.7,1.8-8.8,1.7-6.8-.1-13.6,0-20.4,0-.3,0-.7.2-.9-.2-.1-.3.2-.5.4-.8,3.9-5.1,7.8-10.3,11.7-15.4.5-.7,1.2-.8,1.9-1.1,1.4-.6,2.5-.3,3.7.7,1.8,1.6,3.8,3,5.7,4.5.1.1.3.2.4.6h-7c-.6,0-.8.2-.8.8,0,.5.3.7.8.7,2.3,0,4.6,0,6.9,0,1.7,0,3.1.3,4.3,1.5.7.6,1.4,1.1,2.2,1.7,1.3,1,2.5.8,3.5-.5.9-1.2,1.8-2.5,2.7-3.7.8-1,1.7-1,2.5,0,.8.9,1.9,1.1,2.9.5.6-.4,1.2-.8,1.9-1.2,1.6-1.2,3.5-.9,5.2-.6.7.1,1.3.5,2,.8,1,.4,1.9.4,2.7-.4.7-.8,1.6-.9,2.5-.8,2.3.2,4.7.1,7,.2.5,0,1,.1,1.4.3,4.9,2.3,9.9,4.7,14.8,7,.5.2.9.3,1.2-.3.3-.7,0-.8-.6-1.1-4.7-2.2-9.3-4.4-14-6.6-.7-.3-.8-.7-.3-1.3.6-.9,1.2-1.8,1.7-2.8,1-2,2.7-3.4,4.3-5,.7-.7,1.7-.4,2.5-.5.8-.2,1.4.2,2,.9,2.6,3.3,5.2,6.6,7.8,9.8.2.2.6.4.4.8-.1.2-.5,0-.8,0-1.5,0-3.1,0-4.6,0-.5,0-.9.1-.9.8,0,.7.4.8.9.8,2.1,0,4.1,0,6.2,0,.5,0,.9.2,1.2.6,2.3,3,4.7,5.9,7,8.9.2.2.4.4.3.6-.1.3-.5.2-.7.2-.1,0-.2,0-.3,0-8.1,0-16.2,0-24.4,0-.8,0-1.4-.2-2.1-.6-1.5-1-3.1-1.8-4.6-2.8M80.9,54.8h-33.2s0,0,0-.1c.9-.3,1.8-.7,2.7-1,3.1-1,6-2.6,8.6-4.4.5-.4,1.1-.7,1.6-1,1.6-1.1,3.2-1.1,4.9-.2,1.6.9,3.1,1.7,4.7,2.6,1.2.7,2.7.8,4,.8,2.8.2,4.7,1.9,6.8,3.3M11.9,33.3c2.3-1.4,4.5-2.7,6.8-4,1.1-.6,2.2-1.3,3.3-1.9.3-.1.6-.5.9,0,.3.4.5.7.1,1.2-1.5,1.8-3,3.7-4.5,5.5,0,0-.1.2-.2.2-1.5.6-3.1.9-4.4,1.3-.4,0-2.3-1.3-2.4-1.6-.1-.4.2-.5.5-.6M11,31.5c-.1-.3.2-.4.3-.5,3.3-2,6.6-3.9,9.8-5.8.2-.1.4-.3.6-.1.1.1.2.3.2.4,0,.4-.2.5-.5.6-3.1,1.9-6.2,3.7-9.4,5.5-.2.1-.3.2-.5.2-.3,0-.6-.1-.7-.4M24,21.7c1.1.7,2.3,1,3.6.8.5,0,.9-.2,1.4-.3,1.1-.1,1.9-.5,1.9-1.8,0,0,0-.2,0-.2.8-.5,1.4-1.3,2.1-1.7.9-.5,2.1-.3,3.2-.2.6,0,.4.6.4,1,0,.4,0,.7-.6.7-.6,0-1.2.1-1.8.2-.4,0-.6.2-.6.6,0,.4.2.6.6.6,1,0,2.1-.1,3.1-.2,1.7-.1,3.4-.2,5.1-.3.4,0,.8,0,.9.6,0,.6,0,.9-.7,1-3.2.5-6.5,1.1-9.7,1.6-.4,0-.8,0-.8.6,0,.6.3.7.9.6,2.5-.5,5-.9,7.6-1.3.3,0,.7-.3.9,0,.1.4-.2.7-.5,1-.2.1-.5.2-.7.3-4.3,1.2-8.6,2.5-12.8,3.8-.8.2-1.4,0-2-.5-2.1-2.1-2.9-3.8-3-6.4,0-.4-.2-1.1.1-1.3.4-.2.8.4,1.2.7M23.3,19c.1-.2.3-.2.5-.2,1.8.4,3.6.8,5.4,1.3.2,0,.4.2.4.4,0,.3-.2.4-.4.4-.8.2-1.6.3-2.2.4-1.6,0-2.6-.8-3.5-1.8-.1-.1-.2-.3-.1-.5M24.7,30.1c-.4,1.3-.7,2.6-1.1,3.9-.6,2.2-.8,2.4-3.1,2.6,0,0-.1,0-.2,0-.3,0-.5,0-.6-.3-.2-.6-.6-1.2,0-1.9,1.2-1.4,2.3-2.9,3.5-4.3.2-.2.3-.4.5-.6.2-.2.4-.5.7-.3.3.2.4.5.3.9M10.6,13.1c1.2.5,2.5.9,3.6,1.5,1.6.8,3.4,1,5.2,1.1,2.4,0,4.7.1,7.1.2.5,0,.9.1,1.3.4,1,.6,2,1.1,2.9,1.7.2.1.5.2.5.4s-.3.3-.5.4c-.4.2-.7.2-1.1,0-1.7-.4-3.5-.8-5.2-1.2-.3,0-.6-.1-.9-.2-.2,0-.5,0-.6.1-1,1-2.2.5-3.3.5-2,0-4.1-.2-6.1-.3-1.2,0-2.8-1.3-3.1-2.5-.1-.6-.2-1.1-.4-1.7-.2-.6,0-.8.6-.5M4.5,13.2h.2c1.4,1.1,2.8,2.2,4.2,3.4,1,.8,2,1.5,3.1,2.2.8.5,1.8.4,2.7.4,2,.1,4,.1,5.9.2,1,0,1.1.2.9,1.2-.1.5-.4.5-.8.5-3.5-.2-7-.4-10.5-.6-1.1,0-2.3-.1-3.5-.2-.6,0-1-.3-1.1-1-.4-2-.8-4.1-1.2-6.1M2.5,24c-.2-.1,0-.3.1-.4.9-.7,1.8-1.3,2.7-2,.5-.3,1-.1,1.6-.2,4.5.3,9.1.5,13.7.8.4,0,.7,0,.7.5,0,.5-.2.6-.6.7-1.9.2-3.8.5-5.7.7-3.1.4-6.3.8-9.4,1.1-1.2.1-2-.8-3-1.3M3.8,33.8c.7-1.6,1.5-3.1,1.9-4.8.6-2.1,1.8-2.9,4-3,3-.1,6-.7,9.1-.9-4.9,2.9-9.9,5.9-14.8,8.8,0,0-.1,0-.2-.1M6.3,170.8c0,1-.7,1.6-1.7,1.6-.9,0-1.6-.8-1.6-1.7,0-.9.7-1.6,1.7-1.6,1,0,1.6.7,1.6,1.7M6.3,131.1c0,1-.7,1.6-1.7,1.6s-1.6-.7-1.6-1.6c0-1,.7-1.7,1.6-1.7,1,0,1.7.7,1.7,1.6M6.3,91.6c0,.9-.7,1.6-1.6,1.7-1,0-1.7-.7-1.7-1.7,0-.9.7-1.6,1.6-1.6,1,0,1.7.7,1.7,1.6M6.3,51.9c0,1-.7,1.7-1.7,1.6-.9,0-1.6-.8-1.6-1.7,0-.9.8-1.6,1.7-1.6s1.6.8,1.6,1.7M6.4,43.2c-.8.5-.9.4-.9-.6v-1.9c-.6-2.2.5-3.4,2.4-4.2.3-.1.5-.3.8-.5.3-.2.4-.4.2-.7-.2-.3-.4-.5-.8-.3-.7.4-1.3.8-2,1.2-.4.2-.5.2-.6-.3,0-.9,0-1.6,1-2.1.9-.4,1.7-1,2.6-1.5.3-.2.6-.2.9,0,.3.3.3.5.1.9-.3.6,0,1.1.4,1.5.4.3.8.6,1.2.9.4.3.4.6,0,.8-.7.4-1.5.9-2.2,1.3-.4.2-.5.4-.3.8.2.4.5.4.9.2,0,0,.2,0,.3-.2,2.2-1.6,4.6-2.4,7.2-3,.3,0,.7-.3.9.3.1.5,0,.7-.4.9-3.9,2.1-7.7,4.2-11.5,6.3M112.4,155.3c0,7.8-5.2,13.7-12.9,14.8-3.3.5-6.7.6-10,.8-6.5.4-13,.9-19.3,2.9-2,.6-3.9,1.4-5.7,2.4-.8.4-1.4.4-2.2,0-5.3-2.8-11-4.2-16.9-4.9-4.5-.6-9.1-.7-13.7-1-2.3-.1-4.7-.3-7-.7-5.5-.9-9.8-5.4-10.4-10.9,0-.9-.1-1.7-.1-2.6,0-29.6,0-59.1,0-88.7,0-3.1.1-6.2.1-9.2,0-1.1.9-2,2.1-2,8.8,0,17.6,0,26.4,0,22.3,0,44.7,0,67,0h.5c1.5,0,2,.5,2,2v48.9h0v48M118.3,36.2c.8.5,1.6,1,2.4,1.4.6.3.8.7.8,1.3,0,1.3,0,2.7,0,4,0,.6-.2.7-.7.4-3.3-1.8-6.6-3.6-9.9-5.4-.6-.3-1.2-.7-1.8-1-.5-.2-.6-.6-.4-1.1.2-.5.6-.2.9-.2,2.4.6,4.8,1.4,6.8,2.8.2.1.4.2.6.3.3.2.6,0,.7-.3.2-.3.2-.6-.2-.8-.8-.5-1.5-.9-2.3-1.3-.4-.2-.5-.5,0-.8.4-.3.9-.7,1.3-1,.5-.4.7-1,.4-1.6-.2-.3,0-.5.2-.8.3-.2.5-.2.8,0,1,.6,2.1,1.3,3.1,1.9.6.3.6.8.5,1.5,0,.2.2.6-.2.8-.3.1-.5-.2-.8-.3-.6-.3-1.1-.6-1.6-1-.4-.2-.7-.3-.9.2-.3.5,0,.7.4.9M124,170.8c0,.9-.7,1.6-1.7,1.6s-1.6-.7-1.6-1.6c0-.9.7-1.6,1.7-1.7,1,0,1.7.7,1.7,1.6M124,131.1c0,1-.7,1.6-1.7,1.6-.9,0-1.6-.7-1.6-1.6,0-.9.8-1.7,1.7-1.7.9,0,1.7.8,1.7,1.7M124,91.6c0,.9-.8,1.6-1.7,1.6-.9,0-1.7-.8-1.7-1.7,0-.9.8-1.6,1.7-1.6,1,0,1.7.7,1.6,1.7M124,51.9c0,.9-.7,1.6-1.6,1.7-.9,0-1.7-.7-1.7-1.6,0-.9.8-1.7,1.7-1.7.9,0,1.7.7,1.7,1.7M123.1,33.8c0,0,0,.1-.2.2-4.9-2.9-9.9-5.8-14.8-8.8,0,0,0-.1,0-.2,2.4.3,4.9.6,7.3.9,1.2.1,2.4.3,3.7.4.4,0,.8.1,1,.6.9,2.3,1.9,4.6,2.9,6.9M119.9,25.2c-4.3-.7-8.7-1.1-13.1-1.6-.2,0-.4,0-.7-.1-.4,0-.7-.2-.7-.6,0-.5.4-.5.8-.5,3.9-.2,7.8-.5,11.7-.7.7,0,1.4-.2,2.1-.1.9-.2,1.7.1,2.4.7.5.4,1.1.8,1.7,1.2.4.3.5.5,0,.7-1.3.7-2.6,1.2-4.2,1"/>
      <path class="st2" d="M109.1,64c-.1-1.8-1.7-2.9-3.1-2.5-.4,0-.8,0-1.2,0-14.2,0-28.3,0-42.5-.1-13.9-.2-27.8,0-41.6,0s-.4,0-.6,0c-1.3.1-2.3,1.1-2.5,2.3,0,.5-.1,1-.1,1.6,0,2.8,0,5.5,0,8.3v79.3c0,2.4.4,4.7,1.6,6.8,2.5,4.5,6.5,6.4,11.5,6.8,4.2.3,8.5.4,12.7.6,6.5.4,12.8,1.4,18.6,4.5.9.5,1.8.4,2.7,0,.7-.3,1.3-.7,2-1,5.3-2.4,10.9-3,16.7-3.3,4-.2,8-.3,12-.7,8.1-.8,13.7-6.9,13.7-15.1v-86.4c0-.3,0-.7,0-1M95.9,164.8c-3.3.4-6.5.5-9.8.6-5.5.2-11,.5-16.3,2.2-1.8.6-3.6,1.3-5.3,2.2-.8.4-1.4.4-2.2,0-4-2-8.2-3.2-12.6-3.8-4-.6-8-.7-12.1-.9-3.2-.1-6.3-.1-9.5-.7-5.2-1-8.9-5.5-8.9-10.8v-88.4c0-.3,0-.7,0-1,0-.7.4-1.1,1.1-1.1h.9c13.6,0,27.3.1,40.9,0,14.2-.2,28.4,0,42.5,0h.9c1.5,0,1.8.4,1.8,1.9,0,29,0,58,0,87,0,6.2-4.6,12.3-11.6,13.1"/>
      <path class="st2" d="M45.8,14.2c-.1.2-.2.4-.3.7-.9,2.2,0,3.9,2.2,4.4.2,0,.3,0,.5.1.7,0,.8.4.5,1-.9,1.6-.9,3.3-.1,5,.2.4.2.6,0,1-.6,1.1-.5,2.2.3,3,.5.5.8,1,1,1.7.2.8.8,1.3,1.6,1.2.7,0,1.2,0,1.6.6.2.3.6.4.9.3.8,0,1.5,0,2.1.6.2.2.6.2,1,.1.6-.1,1.1.2,1.6.3,1.4.2,2.9.5,4.4.4.2,0,.5-.2.7,0,.7.3,1.4.2,2.1-.1.2-.1.4-.2.7,0,.8.3,1.6.2,2.2-.4.2-.1.3-.2.6,0,1.6.4,2.8-1.1,4.3-.8.1,0,.3-.2.4-.3.3-.5.7-.6,1.1-.5,1.3,0,1.9-.4,2.1-1.5,0-.5.3-.9.7-1.2,1.1-1,1.2-2.1.4-3.3-.2-.3-.2-.5,0-.8.8-1.7.8-3.3,0-5-.3-.6,0-1,.6-1.1.2,0,.3,0,.5,0,2.5-.5,2.7-2.3,2.1-4.3,0-.2-.2-.4-.3-.6-.7-1-.4-1.8.3-2.7,1.4-1.7.8-3.3-1.4-3.7-.3,0-.7,0-1,0-.3,0-.5,0-.8-.3-2.1-1.9-3.5-2-5.9-.5-.3.2-.5.2-.8,0-1.3-1.3-3-1.4-4.3,0-.3.3-.4.3-.8,0-2-1.7-4-1.7-6,0-.3.3-.5.3-.9,0-1.3-1.3-2.9-1.3-4.2,0-.4.4-.6.5-1.1,0-1.5-1.2-3.7-1.3-5,0-.7.6-1.4.9-2.3,1-2.4.3-3.1,2-1.5,3.8.7.8.8,1.5.3,2.4M65.3,21c.4.4.8.7,1.2,1,.1.1.3.2.2.4,0,.2-.3.2-.4.2h-5.5c-.2,0-.4,0-.4-.1,0-.2,0-.4.2-.5.4-.4.9-.8,1.3-1.2.7-.7.8-1.3.4-2.1-.4-.8-1.2-1.4-2-1.2-.5,0-1.1.2-1.6.4-.8.4-1.5.2-2.1-.5,4.7-1.5,9.2-1.5,13.9,0-.5.5-1,.8-1.7.6-.5-.2-1.1-.3-1.6-.4-1.1-.2-1.9.2-2.4,1.1-.4.9-.3,1.7.6,2.4M56.8,18.9c.4.3.8.3,1.2.2.7-.2,1.3-.5,2.1-.5.5,0,.9,0,1.2.6s0,.9-.4,1.1c-.8.6-1.6,1.3-2,2.2-.2.4-.6.4-1,.4-.4,0-.3-.4-.4-.7-.6-2.1-2.5-3.2-4.5-2.7-1.9.6-2.9,2.7-2.2,4.8.1.3.5.7-.2.9-.5.2-1,.2-1.2-.5-.2-.6-.3-1.2-.3-1.8,0-2.1,1.2-3.5,2.9-4.4,1.6-.9,3.2-.8,4.8.3M55.5,24c-.6.3-1.1.5-1.7.9-.7.4-1.2.2-1.7-.4-.7-.8-.6-1.7-.2-2.6.4-.9,1.1-1.4,2.1-1.3,1,0,1.7.5,2.2,1.2.6.9.3,1.8-.7,2.3M54.3,32.2c-.7,0-.8-.5-.8-1,0-.8.6-.8,1.1-.9.6-.1.5.4.5.7,0,.6,0,1.2-.8,1.2M57.7,32.2c0,.5-.3.8-.8.8-.5,0-.8-.2-.8-.7,0-.8,0-1.6,0-2.4,0-.6.8-.8,1.3-1,.2-.1.3.2.3.4,0,.5,0,1,0,1.5v1.4M60.4,30.8v1.9c0,.5-.2.8-.7.8-.5,0-.8-.3-.9-.8,0-1.3,0-2.6,0-3.9,0-.6.5-.5.9-.6.4,0,.7.1.7.6v1.9M62.9,33c0,.4,0,.8-.6.8-.5,0-.7-.3-.7-.7v-4.2c0-.4.2-.6.6-.6.4,0,.7.1.7.6v2.2h0v1.9M65.5,32.9c0,.6-.2.9-.8.9s-.6-.4-.6-.9v-2c0-.7,0-1.3,0-2,0-.5.2-.7.8-.7.5,0,.7.2.7.7,0,1.3,0,2.6,0,4M68.1,32.7c0,.5-.3.8-.8.8-.5,0-.8-.3-.8-.8,0-.7,0-1.3,0-2h0c0-.6,0-1.2,0-1.8,0-.5.2-.7.7-.7.5,0,.9,0,.9.7v3.8M70.8,30.7c0,.1,0,.3,0,.5h0c0,.4,0,.8,0,1.2,0,.4-.3.6-.7.6-.4,0-.7-.2-.7-.7,0-1,0-2,0-3,0-.4.2-.4.5-.2.6.4,1.2.7.9,1.6M72.7,32.2c-.8,0-.8-.5-.8-1.1,0-.3-.2-.8.5-.7.4,0,1.2,0,1.1.8,0,.5,0,1.1-.8,1.1M77.4,28.6c-.5.7-1.1,1-1.9,1-1.7.1-3.3-.2-4.7-1.1-1.3-.9-2.7-1.2-4.2-1.2-2.2,0-4.3,0-6.5,0-1.4,0-2.6.3-3.7,1-1.5,1-3.1,1.4-4.8,1.3-.8,0-1.5-.3-2-.9-.6-.8-.4-1.6.5-2.1.6-.3,1.2-.3,2-.3,1,0,2.1-.2,3.1-.8,2.2-1.4,4.5-1.9,7.1-1.7,1.8.1,3.6,0,5.4,0,.5,0,.9,0,1.4.3.8.4,1.6.7,2.4,1.1,1.4.8,2.8,1.3,4.4,1.1.4,0,.9,0,1.3.3.8.5.9,1.2.4,2M70.5,22.9c0-1.3,1.1-2.4,2.5-2.4,1,0,1.8.5,2.1,1.4.3,1,.3,1.9-.4,2.7-.4.4-.8.6-1.3.3-.8-.4-1.5-.8-2.3-1.1-.4-.2-.5-.5-.6-.9M77.4,24.9c-.2.4-.4.5-.8.4-.6-.1-.8-.3-.5-1,.8-1.9-.3-4.2-2.1-4.8-2.1-.6-4.2.6-4.6,2.8,0,.2,0,.5-.4.5s-.8,0-1-.4c-.5-1-1.3-1.7-2.2-2.3-.3-.2-.5-.5-.3-.9.2-.4.4-.7.9-.7.8,0,1.5.3,2.2.5.5.2,1,.2,1.5-.2,1.6-1.1,3.2-1.1,4.9-.2,1.8,1,2.7,2.5,2.8,4.3,0,.8-.2,1.4-.4,2M79.2,10c0-.3-.3-.7.2-.8.5-.1,1,0,1.4.4.3.3.4.6.1,1-.2.4-.5.8-.8,1.1-.6.8-.7,1.7-.2,2.6.4.7.7,1.5.7,2.3,0,.7-.3,1.2-1,1.4-.7.2-1.5.4-2.2.5-.2,0-.4,0-.6-.2-1.8-1.4-4-1.7-6.1-2.2-1.3-.4-2.7-.6-4.2-1,1-.7,1.9-1.3,2.5-2.3.3-.5.4,0,.6.1,1.3,2.2,4.6,2.9,7,1.8,1.9-.9,2.9-2.6,2.8-4.9M70.2,11.9c2.8,2.3,5.2,1.9,7.6-.7,0,1.6-1.3,2.8-3.1,3-2,.3-3.9-.6-4.5-2.3M72.4,9.1c.3-1,1.6-1.8,2.7-1.8,1.2,0,2.3.7,2.7,1.8,0,.2.3.5,0,.7-.3.2-.5-.1-.7-.4-.6-1.2-1.5-1.7-2.7-1.3-.7.2-1.2.6-1.3,1.3,0,.4-.3.6-.6.4-.4-.1-.2-.5,0-.7M75.9,11.1c-.8,1.4-3.1,1.4-4.5,0h4.5ZM68.4,7.5c.6-.4,1.3-.4,1.9,0,.6.4.8,1.1.7,1.8,0,.4-.3.5-.6.5h-1.1c-.1,0-.2,0-.3,0-.5,0-1.1.2-1.3-.5-.2-.7,0-1.4.7-1.8M60.5,9.1c.4-1.1,1.7-2.1,2.9-2.1s2.6.9,3,2.2c0,.2.3.6,0,.7-.4.1-.6,0-.7-.4-.3-.9-.9-1.6-1.9-1.6-1.2,0-1.9.4-2.3,1.6-.1.4-.2.6-.7.5-.5-.1-.3-.5-.2-.8M66,10.9c-1.1,1.4-3.9,1.5-4.7.2,1.5-.3,3.1-.2,4.7-.2M59.6,11.4c2.1,2.4,5.4,2.5,7.6.2.2-.2.4-.8.9-.5.3.2,0,.7-.2,1.1-.7,1.5-2.3,2.4-4.9,2.4-1.3,0-3-.6-3.9-2.4-.1-.2-.2-.5-.3-.7,0-.2,0-.3,0-.4.1,0,.3,0,.4.1s.2.2.3.3M56,8.3c.4-.8,1.3-1.2,2.2-.9.8.3,1.2,1.3,1,2.1,0,.3-.3.4-.5.4h-1.6c-1.2,0-1.5-.5-1.1-1.6M56.6,12c-.4,1.5-2.3,2.4-4.2,2.2-1.8-.2-3.3-1.4-3.2-3,2.3,2.5,4.7,2.8,7.4.8M55,10.9c.2,0,.4,0,.4.2s-.1.3-.2.4c-1.1.9-3.2.6-4.3-.6h4.1M49.1,9.2c.3-1,1.7-1.9,2.8-1.9,1.2,0,2.4.9,2.7,2v.2c0,.4-.2.4-.5.3-.1,0-.2-.2-.3-.3-1.3-2.1-2.9-2.1-4.1,0-.2.3-.3.4-.6.3-.3-.1-.2-.4-.1-.6M46,9.6c.3-.4.8-.5,1.3-.5.4,0,.4.2.4.6,0,2.2.5,4.2,2.7,5.2,2.2,1,4.3.8,6.2-.7.4-.3.7-.8,1-1.2.1-.2.3-.4.5,0,.5,1,1.4,1.6,2.5,2.3-1.6.4-2.9.6-4.2,1-2.2.5-4.4.9-6.3,2.3-.2.2-.5.1-.7,0-.6-.1-1.2-.2-1.8-.4-1.1-.3-1.5-.9-1.3-2.1.1-.6.3-1.2.6-1.7.6-1,.5-1.9-.3-2.8-.2-.2-.3-.4-.5-.7-.3-.4-.5-.8-.2-1.3"/>
      <path class="st2" d="M99.8,115.7h-21.6c-.4,0-.6-.2-.6-.6-.2-1.2-.2-2.4-.2-3.6,0-.4.2-.7.6-.7,2-.3,3.1-2.1,1.8-4.3-1.3-2.2-2.6-4.3-3.9-6.5-.2-.4-.5-.5-.9-.3-.8.4-1.7.6-2.6.8-2.6.6-5,.4-7.2-1.2-.7-.5-1.1-1.1-1-2,0-6.4,0-12.8,0-19.3v-.8c0-.4-.2-.5-.5-.6-.7,0-.9.2-.9,1.1,0,6.2,0,12.3,0,18.5,0,1.9-.8,2.8-2.2,3.6-.7.3-1.3.6-2.1.8-2.3.5-4.5,0-6.6-.9-.5-.2-.8-.3-1.2.3-1.3,2.2-2.6,4.3-3.9,6.6-1.2,2.1-.4,3.7,1.8,4.2.5.1.7.4.7.8,0,1-.1,2-.2,3,0,1.1-.2,1.2-1.3,1.2h-20.2c-.3,0-.5,0-.8,0-.4,0-.5.2-.6.6,0,.8.1.9,1,.9h20.2c1.2,0,1.2,0,.9,1.2-.3,1.4-.9,2.7-1.1,4.1-.8,4.4,1,7.8,5.1,9.5,1.6.7,3.2,1.1,4.9,1.3.8.1,1.6.2,2.5.4,1.1.2,1.9.9,2.7,1.7.5.5.2,1.2.2,1.8,0,3.5,0,7,0,10.5v11.4c0,.4,0,.9.6,1,.7.1.9-.1.9-1v-22.4c0-1.5.7-2.4,2.2-2.9.3,0,.5-.1.8-.2,1.8-.3,3.6-.5,5.3-1,2.2-.7,4.3-1.6,5.7-3.6,1.8-2.4,1.7-5.1,1-7.8-.2-.9-.6-1.8-.8-2.8-.4-1.4-.4-1.4,1-1.4h20.7c.6,0,.8-.3.8-.8,0-.8-.6-.7-1.1-.7M75.7,129.5c-1.4,1.1-3,1.7-4.8,2-1.3.3-2.7.5-4,.6-1.2.2-2.2.6-3.1,1.4-.4.4-.7.4-1.1,0-1.1-1.2-2.6-1.5-4.1-1.6-2.4-.3-4.7-.7-6.8-1.9-.4-.2-.7-.4-1-.7-.1-.1-.4-.2-.3-.4,0-.2.3-.2.5-.2,4.2-.4,8.4-1.3,12.6-1,4-.3,7.9.4,11.8.9.2,0,.5,0,.6.2,0,.3-.2.4-.4.6M53.1,122.6c0-1.1,0-2.2,0-3.2,0-.6.3-.8.8-.8s.8.2.8.8c0,2,0,4,0,5.9,0,.5-.8,1.2-1.3,1.1-.4,0-.3-.4-.3-.6,0-1.1,0-2.2,0-3.2M59.7,124.9c0,.6-.2.9-.8.9-2.7,0-2.7,0-2.7-2.6s0-3.4,0-5.1c0-.7.3-1.1,1-1.2.3,0,.7,0,1,0,1.3,0,1.5.3,1.5,1.6v3c0,1.2,0,2.3,0,3.5M65.7,125.4h-.1c0-1.1,0-2.2,0-3.2,0-1.3-.9-2.2-2.1-2.2-1.1,0-2,.9-2,2.2,0,.8,0,3.3,0,3.3h-.2v-8.2c0-.4.2-.7.7-.7,1,0,2,0,3,0,.6,0,.8.3.8.8,0,2.7,0,5.4,0,8.1M64.2,124.6c0,.4-.2.7-.6.7s-.7-.2-.7-.6v-2.5c0-.4.1-.7.6-.7.4,0,.7.2.7.6v2.5ZM70.8,121.5c0,1.2,0,2.4,0,3.5,0,.5-.2.8-.7.7-.7,0-1.5,0-2.2,0-.4,0-.7-.2-.7-.7v-7.2c0,0,0-.2,0-.2.2-.6,1.1-.9,2.3-.7.7,0,1.2.3,1.2,1.1,0,1.2,0,2.3,0,3.5M73.9,125.5c0,.3.2.8-.3.9-.5,0-1.2-.4-1.2-.9,0-1.1,0-2.1,0-3.1s0-1.9,0-2.8c0-.6.3-.8.8-.8s.8.2.8.8c0,1.1,0,2.1,0,3.1s0,1.9,0,2.9M77.8,126.6c-.2.9-.7,1-1.5.9-.8,0-1.1-.4-1.1-1.2,0-2.7,0-5.3,0-8,0-.8-.3-1.1-1.1-1-.3,0-.7,0-1.1,0-.4,0-.7-.1-1-.5-1.1-1.2-2.5-1.5-4.1-1.2-.4,0-.8.3-1-.3-.1-.2-.4-.2-.7-.2h-5.8c-.2,0-.4,0-.5,0-.5.7-1.2.3-1.9.3-1.4,0-2.7.2-3.5,1.5-.2.3-.4.2-.7.3-.5,0-1,0-1.6,0-.6,0-.9.2-.9.9,0,1.4,0,2.8,0,4.2h0c0,1.4,0,2.8,0,4.2,0,.6-.3.9-.9,1-1.7.2-1.8,0-2.1-1.6-.3-1.7,0-3.3.5-4.9,1-3.2,1.7-6.4,1.6-9.7,0-.2,0-.4,0-.6,0-.9-.6-1.4-1.5-1.4-1.3,0-1.8-.8-1.2-2,1.1-1.9,2.2-3.7,3.3-5.6.3-.5.6-.3,1-.2,2,.6,4,.9,6,.6,1.6-.3,3.1-1,4.3-2.1.4-.3.7-.4,1.1,0,2.9,2.5,6.2,2.7,9.7,1.7,1.7-.5,1.2-.7,2.2.9.9,1.5,1.8,3.1,2.7,4.6.3.5.6,1,.2,1.5-.4.5-1,.6-1.6.5-1.1,0-1.1,0-1.2,1.1-.4,3.8.6,7.4,1.7,11,.5,1.7.7,3.4.3,5.2"/>
      <path class="st2" d="M26.2,88.9c0,1.1,0,1.1,1.1,1.1h5.1c.2,0,.5,0,.6.1.1.3-.1.4-.3.6-.3.5-.8.2-1.2.1-2-.4-2-.4-2.4,1.6-.4,2.1-.8,1.9,1.5,2.4.6.1.8.4,1,1,.5,1.2,0,1.9-1,2.6-.2.1-.4.3-.5.4-.3.2-.4.5-.1.8.6.8,1.2,1.5,1.9,2.3.3.3.5.4.8,0,.4-.3.8-.7,1.2-1,.4-.3.7-.4,1.2,0,.2.1.4.3.6.3.8.1,1,.7,1,1.4,0,1.9-.2,1.8,1.8,1.8s2.2-.7,2.2-2.2c0-.3,0-.6.4-.8,1.6-.9,1.6-.9,3.1.3.2.1.3.2.5.3.3.3.6.2.8-.1.6-.7,1.2-1.5,1.8-2.2.3-.4.3-.7-.1-1-.4-.3-.9-.7-1.3-1-.4-.3-.4-.6-.3-1,.2-1.2.8-1.9,2-2,.2,0,.4,0,.6-.2.4,0,.5-.3.4-.7-.2-.9-.4-1.8-.6-2.7-.1-.5-.4-.6-.9-.5-.5.1-1.1.3-1.6.4-.7.1-1-.4-1-.8,0-.5.5-.3.8-.3,1.7,0,3.3,0,5,0,.8,0,1.1-.3,1-1.1,0-1.1,0-2.3,0-3.4v-6.2c0-.3,0-.9-.5-.6-.8.5-.9,0-.9-.7-.1-2.8-.3-5.5-.5-8.2,0-.6-.3-.8-.8-.8-1,0-1.9,0-2.9,0-.7,0-1,.2-1,.9-.2,3.1-.3,6.1-.5,9.4-.1-1.3-.7-.7-1-.4-.5.3-.7.2-.7-.4-.1-2.9-.3-5.8-.5-8.7,0-.6-.2-.9-.9-.9-.6,0-1.2,0-1.8,0-2.2,0-1.9-.5-2.1,2.1-.2,3.4-.4,6.8-.6,10.1,0,0,0,0-.1,0,0-.3,0-.7,0-1.1,0-.5.3-1.2-.2-1.5-.5-.3-.9.3-1.4.6-.9.5-1,.4-1.1-.6-.2-3-.3-5.9-.5-8.9,0-.5-.2-.7-.8-.7-1,0-2,0-3,0-.6,0-.9.2-1,.9-.2,4.2-.5,8.3-.8,12.5,0,.7-.2,1.1-.9,1.3-.7.2-.9.8-.8,1.4,0,1.2,0,2.5,0,3.7M45.8,92.2c1.1-.3,1.2-.2,1.4.8.1.5,0,.8-.5.8-1.4,0-2.3.7-2.1,2.2,0,0,0,.2,0,.3-.3,1,0,1.8.8,2.5.7.5.5,1.5-.2,1.8-.2,0-.3,0-.5,0-.2-.1-.3-.3-.5-.4-.4-.3-.8-.8-1.3-.9-.5-.1-.8.5-1.2.8-.5.2-.9.4-1.4.5s-.7.3-.7.8c0,.4,0,.8,0,1.2,0,.6-.2.8-.9.9-.7,0-1-.1-.9-.8,0-.2,0-.4,0-.7,0-.9,0-1.5-1.2-1.5-.6,0-1.1-.4-1.4-.8-.3-.5-.7-.4-1,0-.3.3-.6.5-1,.8-.4.3-.8.7-1.3,0-.5-.6-.5-1,.2-1.4,0,0,.2-.1.3-.2.7-.6.9-1.2.6-2-.2-.5-.3-1-.2-1.5.1-.7-.2-.9-.8-1-.5,0-.9-.2-1.4-.3-.7-.2-.5-.7-.4-1.1,0-.5.3-.8.8-.6,1.4.6,2.4.3,3-1.1.4-.9,1.3-1,2.3-.8-3.4,2.4-2.9,6.1-1.2,7.9,2.1,2.1,5.4,1.9,7.4-.4,2-2.4,1.3-5.4-1.8-7.6,1.4-.3,2,0,2.9,1.3.5.7,1.2,1,2.1.8M38.7,90.8c2.2,0,3.8,1.7,3.8,3.8,0,2.1-1.7,3.7-3.8,3.7-2,0-3.7-1.7-3.7-3.7,0-2.1,1.7-3.8,3.8-3.8M45.2,80.3c.2-3.1.3-6.2.5-9.2,0-1,.2-1,1.7-1,.8,0,.8.5.9,1.1.1,2.6.3,5.2.5,7.8,0,.5,0,.9-.6,1.1-.8.4-1.5.8-2.2,1.3-.7.4-.8.4-.8-.4v-.7h0M38.3,70.8c0-.5.3-.7.7-.7,1.6-.1,1.8,0,1.9,1.6,0,2.2.2,4.4.4,6.8.5,1.2-.3,1.7-1.4,2.2-.6.3-1.1.6-1.7.9-.3.2-.6.2-.5-.3.2-3.5.4-7.1.6-10.6M29.7,70.9c0-.9.7-.7,1.2-.8,1.3,0,1.3,0,1.4,1.3.2,2.7.3,5.5.5,8.2,0,.6-.1.9-.6,1.2-.9.4-1.7,1-2.6,1.5-.4.2-.5.2-.5-.3.2-3.7.5-7.4.6-11.1M29.7,83.5c1.6-.7,3.1-1.8,4.6-2.7.9-.5.9-.5.9.5s0,1.7,0,2.5c0,.7.2.8.8.5,2-1.2,4-2.3,5.9-3.4.2-.1.5-.4.7-.3.3.1.1.5.1.8,0,.8,0,1.5,0,2.3,0,.8.1.8.8.5,1.9-1.1,3.8-2.2,5.7-3.3.6-.3.8-.3.8.4,0,2.2,0,4.4,0,6.6,0,.7-.2.9-.9.9-2.4,0-4.7,0-8.3,0-3.4-.1-8,.2-12.5.2-1.1,0-1,0-1.1-1.1-.3-2.1.4-3.4,2.4-4.3"/>
      <path class="st2" d="M55.6,154.3c-2.2-1.7-4.3-3.4-6.4-5-.4-.3-.7-.7-.6-1.2,0-1-.2-1.9-.7-2.7-.5-1-1.2-1.9-2.2-2.4-1-.6-1.9-1.3-3.2-1.3-.3,0-.4-.3-.6-.6-1.5-2-3-4-4.6-6-.3-.4-.6-.9-.8-1.4-.1-.5-.4-1-.9-1.2-1.3-.5-1.6-1.8-2.3-2.8-.4-.5.4-.7.7-1,.2-.1.3-.1.4,0,.5.7,1.2.9,1.7.1,1.1-1.5,2.5-2.6,4.2-3.2.2,0,.5-.3.7,0,.2.2,0,.4,0,.6-.4,1-.8,2-1,3-.3,1.8-.1,3.5.8,5.1.2.3.4.6.8.6.5,0,.6.2.8.6.9,1.5,1.9,2.9,3.3,3.9,1.9,1.3,3.2,3,3.7,5.3,0,.4.3.8.7.8.5,0,.7-.3.9-.8.2-.5.3-1,.4-1.6,1.1,1.5,1.8,3.1,2.2,4.7,0,.3.2.6.6.5.4-.1.4-.4.3-.7-.6-2.1-1.5-4.1-2.9-5.8-.2-.3-.5-.4-.9-.3-.4.1-.5.4-.5.8v1.3c-.8-2-2.1-3.6-3.8-4.8-1.5-1.1-2.6-2.6-3.5-4.2-.2-.5-.5-1-1.2-.9-.3,0-.4-.2-.5-.5-.2-.5-.3-.9-.4-1.4-.3-2.1.5-4,1.3-5.9.2-.4.5-.8.1-1.3-.4-.4-.9-.3-1.3-.1-2.2.6-4.1,1.8-5.5,3.6-.6-.9-.9-1-1.8-.4-.3.2-.5.4-.8.6-.4.3-.6.3-.9-.1-.3-.4-.6-.9-.9-1.3-1.2-1.8-1.2-1.8-3-.5-.4.3-.4.6-.1,1,.7,1,1.4,2,2,3,.3.5.4.9.1,1.4-.7,1.4-1,3.1-1.1,4.7,0,2.1.2,4.1.8,6.1-.6,0-1-.2-1.3.3-.2.5,0,.8.3,1.1,1.2,1.8,1.9,3.6,2.1,5.8,0,.7,0,1.4,0,2.1,0,.4,0,.7.5.7.4,0,.5-.3.5-.6,0,0,0-.2,0-.2.2-2.5-.3-4.9-1.6-7.1-.2-.3-.4-.5.2-.7.6-.2.6-.7.4-1.2-.8-2.3-.9-4.7-.8-7.2,0-1,.2-2,.7-2.9,0-.2.2-.6.5-.3.5.6,1.2,1.2,1.2,2,0,.8.4,1.3.9,1.7.2.2.5.4.7.7,1.8,2.8,3.5,5.5,5.3,8.3.2.4.2.8,0,1.2-.4.7-.5,1.4-.3,2.2.3,1.3-.3,2.2-1.2,3-2.8,2.4-5.6,4.8-8.8,6.6-.3.2-.4.6,0,.9.2.1.4.1.6,0,1.2-.8,2.3-1.5,3.4-2.3,1.1-.8,2.2-1.6,3.2-2.5.5-.4.8-.5,1,.1.7,1.5,1.7,2.8,3,3.9.4.3.5.6,0,.9-.2.2-.3.3-.5.5,0,.1-.1.2,0,.4,0,.4.6.5.8.2.4-.5.8-.9,1.2-1.4,0-.1.2-.3.2-.3-.2-.6.2-1,.6-1.3.4-.4.6-.7,0-1.1-.3-.2-.3-.5-.1-.8.2-.5.5-.9,1-1.1.7-.3,1.2-.8,1.7-1.4.7-1,.5-.7,1.8.9,1.3,1.5,2.4,3.1,3.6,4.7.4.6.8.6,1.3,0,.9-.8,1.8-1.5,2.8-2.1,1.1-.6,1.3-.9.6-1.5M33.5,133.1c-.4.1-.5-.4-.7-.5-.6-.3-.9-.9-1.1-1.4-.4-1.1-1.1-1.9-1.7-2.8-.2-.2-.1-.5.1-.6.4-.3.8-.2.9,1.4,0,1.6,1.3,2.7,2.7,3.2.1,0,.1.2.2.3,0,.3-.2.4-.4.5M47.2,146.7c0-.1-.3-.2-.3-.4-.3-1-1.1-1.4-1.9-1.8-.6-.3-.7-.6-.8-1.2,1.7.5,2.7,1.6,3,3.3M37.6,140.2c-.9-1.4-1.8-2.7-2.6-4.1-.1-.2-.4-.4-.1-.7.3-.2.6-.4.8-.6.3,0,.4.2.5.4,1.1,1.5,2.2,3,3.4,4.4.4.5.2.7-.3.9-1.1.6-1.1.6-1.7-.4M39.1,142.5c-.2-.3-.1-.7.2-.9.3-.1.5-.3.8-.4.4-.2.7-.2.9.2.4.7,1,1.2,2,1.3-.9.4-1.2,1.1-1.6,1.9-.3.5-.5.6-.9,0-.4-.7-.9-1.4-1.3-2.1M40.8,156.8c-1.4-1.1-2.2-2.5-2.8-4.1,0-.3,0-.5.3-.6.2-.1.4,0,.5.2.7,1.4,1.7,2.5,2.9,3.4.1.1.2.2.3.3,0,.5-.7.9-1.1.7M46.2,148.2c-.5.7-.8,1.4-1,2.2-.2,1.1-1,1.9-2,2.4-.6.3-1,.6-1.2,1.2,0,.2-.1.4-.4.4,0,0-.2-.2-.3-.3-.5-.6-1-1.2-1.4-1.8-.5-.7-.8-1.4,0-2.1.4-.4.3-1,.3-1.6,0-.6,0-1.1,0-1.6,0-.3,0-.8.6-.3.4.4.5,0,.6-.3.3-.8.9-1.4,1.3-2.1,0-.2.2-.4.4-.4.3,0,.3.3.3.5,0,.3,0,.5.2.8,0,.3.2.5.5.5,1.3-.3,1.7.8,2.3,1.6.2.3.1.6,0,.9M54,155.4c-.7.5-1.4.9-2,1.5-.7.6-.8-.2-2-2.4-.8-1.4-1.9-2.5-3.2-3.5-.3-.2-.4-.5-.4-.8,0-.4.2-.8.5-1,.4-.2.6.1.8.3,2.1,1.6,4.1,3.3,6.2,4.9.6.5.5.7,0,1.1"/>
      <path class="st2" d="M63.4,103.2c-2.7,0-4.7,2.1-4.7,4.7s2.1,4.8,4.7,4.8c2.5,0,4.7-2.2,4.7-4.8,0-2.6-2.2-4.8-4.8-4.7M63.4,111.2c-1.8,0-3.3-1.4-3.3-3.2,0-1.8,1.5-3.3,3.3-3.3,1.8,0,3.2,1.5,3.2,3.3s-1.4,3.3-3.3,3.3"/>
      <path class="st2" d="M99.6,124.5c-.2-.1-.5,0-.6.2-1.8,3.5-5.1,7.6-7.9,11.2-.7.9-1.3,1.7-1.9,2.4-2.1.8-3.9,2.5-4.8,4.6,0-.1,0-.2,0-.4.1-.8.3-1.6.5-2.5,4.2-1.3,3.4-6.8,3-9.5,0-.1,0-.3-.2-.3s-.3,0-.4,0h0c-1.8.7-3.2,2.2-3.8,4.2-.6,1.9-.4,3.9.6,5.5,0,.2,0,.4-.1.6-.9-2.4-2.7-4.4-5-5.6-.2,0-.3,0-.5,0-.1.1-.2.3-.2.4.6,3.2,1.8,7.4,5.2,8.2-.2,2.1-.2,4.1.2,6.9,0,.2.2.4.4.4h0c.2,0,.4-.3.4-.5-.2-1.5-.3-2.8-.3-4h0c4.6,0,6.7-5.5,7.4-7.9h0c0-.2,0-.3,0-.4,0-.1-.2-.2-.4-.2-.1,0-.2,0-.3,0,.4-.5.8-1,1.2-1.5,2.9-3.6,6.1-7.8,8-11.3.1-.2,0-.5-.2-.6M84.2,134.6c.5-1.5,1.5-2.7,2.8-3.4.4,3.3.4,6.6-2,7.7.1-.6.3-1.2.5-1.9,0-.2,0-.5-.3-.6-.2,0-.5,0-.6.3-.1.6-.3,1.1-.4,1.6-.4-1.2-.4-2.5,0-3.8M79.2,136.1c1.9,1.2,3.3,3,3.9,5.1-.3-.5-.7-.9-1.1-1.4-.2-.2-.5-.2-.6,0s-.2.5,0,.6c.5.6,1,1.2,1.4,1.9-2-1-3-3.8-3.6-6.3M85.2,145.2c.6-.6,1.3-1.3,2.2-1.8.2-.1.3-.4.2-.6-.1-.2-.4-.3-.6-.2-.8.5-1.6,1.1-2.2,1.8.7-2.7,2.9-4.9,5.6-5.5-.7,2.1-2.3,5.6-5.1,6.3"/>
      <path class="st2" d="M97.6,140.9l-7.2,7.1c-.2-.7-.6-1.3-1.1-1.8-.2-.2-.5-.2-.6,0-.2.2-.2.5,0,.6.8.8,1.1,1.8.9,2.9-.4,2.3-2.6,4.8-5.9,6.4-1.1.5-2.2.7-3.3.9-.6.1-1.2.2-1.8.2,0-.2-.2-.3-.3-.4,0-.1-.2-.2-.2-.4,0-.3,0-.5,0-.7.4-.7,2-1,2.5-1.1.2,0,.4,0,.6-.1.2-.1.4-.2.6-.4.1-.1.3-.2.4-.2.3-.2.7-.2,1.1-.3,0,0,.2,0,.3,0,.1,0,.2-.2.2-.3.2-.4.6-.6,1-.8.2,0,.4-.3.3-.6,0-.2-.3-.4-.6-.3-.6.2-1.1.5-1.5,1.1-.4,0-.9.1-1.3.4-.2.1-.4.2-.5.3s-.3.2-.4.3c-.1,0-.3,0-.4.1-1.2.2-2.6.6-3.1,1.5-.2.4-.3.9-.2,1.4,0,.2.2.4.3.6-.3,0-.7,0-1-.1-.2,0-.3,0-.5-.1-.2,0-.2-.1-.2-.1,0,0,0,0,0-.1,0-.2.2-.4.4-.6,0-.1.2-.2.2-.3,0,0,0,0,0,0s0,0,0,0c0,0,0,0,0,0,0,0,0,0,0-.1.2-.9,1.4-1.6,2.4-2.2.8-.4,1.6-.9,2.2-1.6.2-.2.1-.5,0-.6s-.5-.1-.6,0c-.4.5-1.2.9-1.9,1.4-1,.6-2.1,1.2-2.6,2.1,0,0,0,0,0,0-.2-.2-.2-.4-.3-.6,0-.3,0-.5.3-.7.2-.1.4-.3.6-.4.2-.1.4-.2.5-.4l.3-.3c.3-.2.5-.4.8-.6.6-.4,1.1-.8,1.7-1.3.9-.9,1.5-2.1,1.6-3.4,0-.2,0-.3-.2-.4-.1-.1-.3-.1-.5,0-.5.2-1.4.4-1.9.4-.1,0-.3,0-.4.2,0,.1-.1.2,0,.4.2.9-.5,1.6-.8,1.7-.4.3-1,.5-1.4.4,0-.2,0-.3.1-.5.8-2.9,1.1-4.2,4.4-5.3.2,0,.4-.3.3-.6s-.3-.4-.6-.3c-3.7,1.3-4.2,2.9-5,5.9,0,.3-.2.6-.2.9,0,.2,0,.4.2.5.7.4,1.8.3,2.7-.3.8-.6,1.2-1.3,1.2-2.1.3,0,.7-.1,1-.2-.2.8-.6,1.6-1.2,2.1-.5.4-1,.8-1.5,1.2-.3.2-.6.4-.9.6l-.3.3c-.2.1-.3.2-.5.3-.2.1-.5.3-.7.5-.5.4-.7.9-.6,1.5,0,.4.2.7.4,1,0,0,.1.2.3.3-.2.2-.4.5-.6.9,0,.2,0,.5,0,.7,0,.3.3.5.7.7.2,0,.4.2.7.2.5.1.9.1,1.4.1.9,0,1.8-.1,2.8-.3,1.2-.2,2.4-.4,3.6-1,3.5-1.8,6-4.5,6.4-7.1,0-.3,0-.6,0-.8,0,0,0,0,0,0l7.7-7.5c.2-.2.2-.5,0-.6-.2-.2-.5-.2-.6,0"/>
      <path class="st2" d="M70.4,72.3h0c.8,0,1.2.6,1.8,1.3.6.8,1.3,1.7,2.6,1.7h0c1.3,0,1.9-1,2.4-1.8.5-.8.8-1.3,1.5-1.3s1.2.6,1.8,1.3c.6.8,1.3,1.7,2.6,1.7,1.3,0,1.9-1,2.4-1.8.5-.8.8-1.3,1.5-1.3h0c.8,0,1.2.6,1.8,1.3.6.8,1.3,1.7,2.6,1.7,1.3,0,1.9-1,2.4-1.8.5-.8.8-1.3,1.5-1.3s.5-.2.5-.5-.2-.5-.5-.5h0c-1.3,0-1.9,1-2.4,1.8-.5.8-.8,1.3-1.5,1.3-.8,0-1.2-.6-1.8-1.3-.6-.8-1.3-1.7-2.6-1.7h0c-1.3,0-1.9,1-2.4,1.8-.5.8-.8,1.3-1.5,1.3h0c-.8,0-1.2-.6-1.8-1.3-.6-.8-1.3-1.7-2.6-1.7-1.3,0-1.9,1-2.4,1.8-.5.8-.8,1.3-1.5,1.3h0c-.8,0-1.2-.6-1.8-1.3-.6-.8-1.3-1.7-2.6-1.7-.3,0-.5.2-.5.5s.2.5.5.5"/>
      <path class="st2" d="M70.4,77.1h0c.8,0,1.2.6,1.8,1.3.6.8,1.3,1.7,2.6,1.7h0c1.3,0,1.9-1,2.4-1.8.5-.8.8-1.3,1.5-1.3h0c.8,0,1.2.6,1.8,1.3.6.8,1.3,1.7,2.6,1.7h0c1.3,0,1.9-1,2.4-1.8.5-.8.8-1.3,1.5-1.3h0c.8,0,1.2.6,1.8,1.3.6.8,1.3,1.7,2.6,1.7h0c1.3,0,1.9-1,2.4-1.8.5-.8.8-1.3,1.5-1.3s.5-.2.5-.5-.2-.5-.5-.5c-1.3,0-1.9,1-2.4,1.8-.5.8-.8,1.3-1.5,1.3h0c-.8,0-1.2-.6-1.8-1.3-.6-.8-1.3-1.7-2.6-1.7h0c-1.3,0-1.9,1-2.4,1.8-.5.8-.8,1.3-1.5,1.3h0c-.8,0-1.2-.6-1.8-1.3-.6-.8-1.3-1.7-2.6-1.7h0c-1.3,0-1.9,1-2.4,1.8-.5.8-.8,1.3-1.5,1.3h0c-.8,0-1.2-.6-1.8-1.3-.6-.8-1.3-1.7-2.6-1.7h0c-.3,0-.5.2-.5.5s.2.5.5.5"/>
      <path class="st2" d="M70.4,82.1h0c.8,0,1.2.6,1.8,1.3.6.8,1.3,1.7,2.6,1.7h0c1.3,0,1.9-1,2.4-1.8.5-.8.8-1.3,1.5-1.3.8,0,1.2.6,1.8,1.3.6.8,1.3,1.7,2.6,1.7,1.3,0,1.9-1,2.4-1.8.5-.8.8-1.3,1.5-1.3h0c.8,0,1.2.6,1.8,1.3.6.8,1.3,1.7,2.6,1.7,1.3,0,1.9-1,2.4-1.8.5-.8.8-1.3,1.5-1.3s.5-.2.5-.5-.2-.5-.5-.5h0c-1.3,0-1.9,1-2.4,1.8-.5.8-.8,1.3-1.5,1.3-.8,0-1.2-.6-1.8-1.3-.6-.8-1.3-1.7-2.6-1.7h0c-1.3,0-1.9,1-2.4,1.8-.5.8-.8,1.3-1.5,1.3h0c-.8,0-1.2-.6-1.8-1.3-.6-.8-1.3-1.7-2.6-1.7-1.3,0-1.9,1-2.4,1.8-.5.8-.8,1.3-1.5,1.3h0c-.8,0-1.2-.6-1.8-1.3-.6-.8-1.3-1.7-2.6-1.7h0c-.3,0-.5.2-.5.5s.2.5.5.5"/>
      <path class="st2" d="M70.4,87.5h0c.8,0,1.2.6,1.8,1.3.6.8,1.3,1.7,2.6,1.7h0c1.3,0,1.9-1,2.4-1.8.5-.8.8-1.3,1.5-1.3h0c.8,0,1.2.6,1.8,1.3.6.8,1.3,1.7,2.6,1.7h0c1.3,0,1.9-1,2.4-1.8.5-.8.8-1.3,1.5-1.3.8,0,1.2.6,1.8,1.3.6.8,1.3,1.7,2.6,1.7h0c1.3,0,1.9-1,2.4-1.8.5-.8.8-1.3,1.5-1.3s.5-.2.5-.5-.2-.5-.5-.5h0c-1.3,0-1.9,1-2.4,1.8-.5.8-.8,1.3-1.5,1.3-.8,0-1.2-.6-1.8-1.3-.6-.8-1.3-1.7-2.6-1.7-1.3,0-1.9,1-2.4,1.8-.5.8-.8,1.3-1.5,1.3-.8,0-1.2-.6-1.8-1.3-.6-.8-1.3-1.7-2.6-1.7-1.3,0-1.9,1-2.4,1.8-.5.8-.8,1.3-1.5,1.3s-1.2-.6-1.8-1.3c-.6-.8-1.3-1.7-2.6-1.7h0c-.3,0-.5.2-.5.5s.2.5.5.5"/>
      <path class="st2" d="M70.4,92.9h0c.8,0,1.2.6,1.8,1.3.6.8,1.3,1.7,2.6,1.7h0c1.3,0,1.9-1,2.4-1.8.5-.8.8-1.3,1.5-1.3h0c.8,0,1.2.6,1.8,1.3.6.8,1.3,1.7,2.6,1.7h0c1.3,0,1.9-1,2.4-1.8.5-.8.8-1.3,1.5-1.3h0c.8,0,1.2.6,1.8,1.3.6.8,1.3,1.7,2.6,1.7h0c1.3,0,1.9-1,2.4-1.8.5-.8.8-1.3,1.5-1.3s.5-.2.5-.5-.2-.5-.5-.5h0c-1.3,0-1.9,1-2.4,1.8-.5.8-.8,1.3-1.5,1.3h0c-.8,0-1.2-.6-1.8-1.3-.6-.8-1.3-1.7-2.6-1.7h0c-1.3,0-1.9,1-2.4,1.8-.5.8-.8,1.3-1.5,1.3s-1.2-.6-1.8-1.3c-.6-.8-1.3-1.7-2.6-1.7h0c-1.3,0-1.9,1-2.4,1.8-.5.8-.8,1.3-1.5,1.3h0c-.8,0-1.2-.6-1.8-1.3-.6-.8-1.3-1.7-2.6-1.7-.3,0-.5.2-.5.5s.2.5.5.5"/>
      <path class="st2" d="M101.8,67.8c-.3,0-.5.2-.5.5v2.2l-1.7-2.5h0c0,0,0,0,0,0s0,0,0,0c0,0,0,0,0,0,0,0,0,0-.1,0h0s0,0,0,0c0,0,0,0,0,0,0,0,0,0,0,0,0,0,0,0,0,0,0,0,0,0,0,0s0,0,0,0c0,0,0,0,0,0s0,0,0,0h0v28.3c0,.3.2.5.5.5s.5-.2.5-.5v-3.5l1.6,2.4s0,0,0,0v1.1c0,.3.2.5.5.5s.5-.2.5-.5v-28.2c0-.3-.2-.5-.5-.5M99.7,83.6l1.6-2.3v4.6l-1.6-2.3ZM99.6,81.9v-4.2l1.5,2.1s-1.5,2.1-1.5,2.1ZM99.7,75.9l1.6-2.3v4.6l-1.6-2.3ZM99.6,74.2v-4.2l1.5,2.1s-1.5,2.1-1.5,2.1ZM99.6,85.4l1.5,2.1-1.5,2.1v-4.2ZM99.7,91.3l1.6-2.3v4.6l-1.6-2.3Z"/>
      <path class="st0" d="M143,34.6h24.9c13.8,0,23.1,6.3,23.1,20.5v.6c0,15-10.3,20.9-23.1,20.9h-8.3v16.5h-16.6v-58.5ZM166.3,61.7c5.3,0,8.3-1.5,8.3-6.1v-.2c0-4.3-2.9-5.8-8.3-5.8h-6.7v12.1h6.7Z"/>
      <path class="st0" d="M195,73.7v-39.1h16.6v35.4c0,4.9,3.3,8,8.7,8h.2c5.9,0,8.8-3,8.8-8v-35.4h16.6v39c0,13.1-9.2,20.4-25.1,20.4h-.2c-16.4,0-25.6-7.3-25.6-20.3"/>
      <polygon class="st0" points="251.9 34.6 295.2 34.6 295.2 49.6 268.6 49.6 268.6 57.7 294.5 57.7 294.5 69.6 268.6 69.6 268.6 78 295.1 78 295.1 93 251.9 93 251.9 34.6"/>
      <path class="st0" d="M300.4,34.6h28.1c12.1,0,18.4,5.2,18.4,14.3s-4.5,12.4-11.2,13.4v.4c6.9.8,13.6,4.6,13.6,14.6s-7.1,15.8-21.5,15.8h-27.4v-58.5h0ZM324.5,58.3c3.6,0,5.3-1.5,5.3-4.7s-1.8-4.3-5.7-4.3h-7.2v9h7.5ZM325.1,78.3c4.7,0,6.8-1.2,6.8-4.7s-2-4.9-6.3-4.9h-8.6v9.6h8.1Z"/>
      <polygon class="st0" points="354.1 34.6 370.7 34.6 370.7 78 395.7 78 395.7 93 354.1 93 354.1 34.6"/>
      <path class="st0" d="M417.6,34.6h20l20.6,58.5h-17.5l-3.8-11.4h-19.7l-3.6,11.4h-17.5l21.5-58.5h0ZM433.7,68.9l-6.8-21.1-6.6,21.1h13.4Z"/>
      <path class="st2" d="M150.4,148.9h0c0-1.1-.6-2-2.1-2h-.1c-1.3,0-2.2.6-2.4,2.3l-2.6-.3c.3-2.9,2.1-4.2,5.1-4.2h.2c3.3,0,4.8,1.7,4.8,4h0c0,4.3-5.6,5.8-7,8.1h6.8v2.3h-10v-1c0-4.6,7.4-5.7,7.4-9.1"/>
      <path class="st2" d="M181.1,152.2v-.2c0-4.7,2.6-7.2,5.9-7.2h.1c3.2,0,5.7,2.4,5.7,7.2v.2c0,4.7-2.4,7.1-5.8,7.1h-.1c-3.2,0-5.8-2.4-5.8-7.1M190,152.1v-.2c0-2.7-1.2-4.6-3-4.6h-.1c-1.8,0-3.1,1.8-3.1,4.7v.2c0,2.8,1.2,4.6,3.1,4.6h.1c1.8,0,3-1.8,3-4.7"/>
      <path class="st2" d="M228,148.9h0c0-1.1-.6-2-2.1-2h-.1c-1.3,0-2.2.6-2.4,2.3l-2.6-.3c.3-2.9,2.1-4.2,5.1-4.2h.2c3.3,0,4.8,1.7,4.8,4h0c0,4.3-5.6,5.8-7,8.1h6.8v2.3h-10v-1c0-4.6,7.4-5.7,7.4-9.1"/>
      <path class="st2" d="M264.4,156h-6.7v-2.1l6.4-8.8h3v8.7h1.7v2.2h-1.8v3.1h-2.6v-3.1h0ZM264.5,153.8v-5.6l-4.1,5.6h4.1Z"/>
      <rect class="st2" x="296.8" y="152.7" width="4.8" height="1.5"/>
      <path class="st2" d="M337.5,148.9h0c0-1.1-.6-2-2.1-2h-.1c-1.3,0-2.2.6-2.4,2.3l-2.6-.3c.3-2.9,2.1-4.2,5.1-4.2h.2c3.3,0,4.8,1.7,4.8,4h0c0,4.3-5.5,5.8-7,8.1h6.8v2.3h-10v-1c0-4.6,7.4-5.7,7.4-9.1"/>
      <path class="st2" d="M368.2,152.2v-.2c0-4.7,2.5-7.2,5.9-7.2h.1c3.2,0,5.7,2.4,5.7,7.2v.2c0,4.7-2.4,7.1-5.8,7.1h-.1c-3.2,0-5.8-2.4-5.8-7.1M377.1,152.1v-.2c0-2.7-1.2-4.6-3-4.6h-.1c-1.8,0-3.1,1.8-3.1,4.7v.2c0,2.8,1.2,4.6,3.1,4.6h.1c1.8,0,3-1.8,3-4.7"/>
      <path class="st2" d="M407.7,155.3l2.7-.5c.3,1.8,1.4,2.4,2.7,2.4h0c1.3,0,2.4-.7,2.4-2.2h0c0-1.7-.9-2.3-3.1-2.3h-.6v-1.6h.4c1.9,0,3-.8,3-2.1h0c0-1.1-.6-2-2-2h-.1c-1.3,0-2.2.6-2.5,2.2l-2.7-.4c.4-2.8,2.5-4,5.2-4h.1c2.9,0,4.6,1.7,4.6,3.7h0c0,1.7-.8,2.7-2.3,3.2h0c1.9.4,2.8,1.5,2.8,3.5h0c0,2.7-2.3,4.2-5.3,4.2h0c-3,0-5-1.4-5.4-4.1"/>
      <path class="st2" d="M446.2,152.2v-.2c0-4.7,2.5-7.2,5.9-7.2h.1c3.2,0,5.7,2.4,5.7,7.2v.2c0,4.7-2.4,7.1-5.8,7.1h-.1c-3.2,0-5.8-2.4-5.8-7.1M455.1,152.1v-.2c0-2.7-1.2-4.6-3-4.6h-.1c-1.8,0-3.1,1.8-3.1,4.7v.2c0,2.8,1.2,4.6,3.1,4.6h.1c1.8,0,3-1.8,3-4.7"/>
      <polygon class="st3" points="224.8 227.9 224.8 281.6 225.6 281.6 225.6 227.9 225.2 227.9 224.8 227.9"/>
      <g>
        <g>
          <path class="st2" d="M142.6,113.6v-.2c0-7.7,3-12.4,10.6-12.4s9.3,3.1,9.8,8.6l-4.8.9c-.4-3.9-2.1-5-4.9-5h-.1c-3.9,0-5.7,2.4-5.7,8.3h0c0,5.8,1.5,8.4,5.6,8.4h.1c3,0,4.9-1.6,5.1-5.7h-4.6v-2.8h9.5v12.4h-4.2v-3.4c-1.2,2.8-3.5,3.9-6.7,3.9h-.1c-7.1,0-9.6-5.1-9.6-13.1h0ZM153.3,101h0,0Z"/>
          <path class="st2" d="M165.5,117.9v-.4c0-5.6,3.5-9.5,9.6-9.5h.4c6,0,9.1,3.7,9.1,9.1v.3c0,5.3-3.1,9.3-9.5,9.3h-.3c-6.3,0-9.4-3.7-9.4-8.9h0ZM180.1,117.4v-.2c0-2.9-1.4-5.3-4.9-5.3h-.3c-3.5,0-5.2,2.2-5.2,5.4v.3c0,3,1.5,5.3,5,5.3h.2c3.7,0,5.2-2.5,5.2-5.5h0Z"/>
          <path class="st2" d="M191.7,123.5v2.7h-4.6v-25h4.6v10.1c1.3-2,3.5-3.2,6.1-3.2h.4c4.2,0,7.4,3.6,7.4,8.9v.3c0,6.4-3.1,9.5-7.7,9.5h-.3c-3.1,0-4.9-1.4-5.9-3.2h0ZM201.1,117.3v-.2c0-3.1-1.6-5.2-4.5-5.2h-.2c-2.9,0-4.4,2.2-4.7,4.2v2.6c.3,2.3,2,4,4.5,4h.2c3.2,0,4.6-2,4.6-5.4h0Z"/>
          <path class="st2" d="M207.7,101.5c0-1.6,1.3-2.7,2.7-2.7s2.7,1.2,2.7,2.7-1.2,2.7-2.7,2.7-2.7-1.2-2.7-2.7ZM208.1,108.6h4.6v17.6h-4.6v-17.6Z"/>
          <path class="st2" d="M215.2,117.4v-.4c0-5,3-9,8.9-9h.2c5.7,0,9,3.2,9.1,8.5v1.7s-14.1,0-14.1,0c.4,3.3,2.3,4.9,5.1,4.9h.1c2.2,0,4-1,4.5-3.1l4,1.6c-1.1,3.3-4,5.2-8.4,5.2h-.2c-5.6,0-9.2-3.2-9.2-9.3h0ZM229,115.7v-.4c0-2.6-1.6-4.2-4.5-4.2h-.2c-3.1,0-4.8,1.6-5.1,4.5h9.7,0Z"/>
          <path class="st2" d="M235.7,108.6h4.6v3.3c1.1-2.2,3.4-3.3,6.3-3.3h.7v4.3h-1.5c-3.1,0-4.8,1.1-5.5,3.6v9.7h-4.6s0-17.6,0-17.6Z"/>
          <path class="st2" d="M257.8,112.4c-2.4,0-3.9,1.2-4.7,3.3v10.4h-4.6v-17.6h4.6v2.7c1.4-2.1,3.6-3.3,6.5-3.3,4.3,0,6.6,2.3,6.6,6.5v11.6h-4.6v-10.3c0-2.3-1.3-3.5-3.7-3.5h0Z"/>
          <path class="st2" d="M268.6,117.9v-.4c0-5.6,3.5-9.5,9.6-9.5h.4c6,0,9.1,3.7,9.1,9.1v.3c0,5.3-3.1,9.3-9.5,9.3h-.3c-6.3,0-9.4-3.7-9.4-8.9h0ZM283.3,117.4v-.2c0-2.9-1.4-5.3-4.9-5.3h-.3c-3.5,0-5.2,2.2-5.2,5.4v.3c0,3,1.5,5.3,5,5.3h.2c3.7,0,5.2-2.5,5.2-5.5h0Z"/>
          <path class="st2" d="M308.5,123.5c-1,1.9-2.7,3.2-5.8,3.2h-.3c-4.6,0-7.8-3-7.8-9.5v-.3c0-5.4,3.3-8.9,7.7-8.9h.4c2.6,0,4.5,1.2,5.8,3.2v-10.1h4.6v25h-4.6v-2.7h0ZM308.5,118.7v-2.4c-.2-2-1.7-4.4-4.5-4.4h-.2c-3,0-4.6,2-4.6,5.1v.2c0,3.4,1.5,5.4,4.7,5.4h.2c2.6,0,4.1-1.8,4.4-4h0Z"/>
          <path class="st2" d="M315.6,117.4v-.4c0-5,3-9,8.9-9h.2c5.7,0,9,3.2,9.1,8.5v1.7s-14.1,0-14.1,0c.4,3.3,2.3,4.9,5.1,4.9h.1c2.2,0,4-1,4.5-3.1l4,1.6c-1.1,3.3-4,5.2-8.4,5.2h-.2c-5.5,0-9.2-3.2-9.2-9.3ZM329.4,115.7v-.4c0-2.6-1.6-4.2-4.5-4.2h-.2c-3.1,0-4.8,1.6-5.1,4.5h9.7Z"/>
          <path class="st2" d="M336.1,101.2h4.6v25h-4.6v-25Z"/>
          <path class="st2" d="M367.5,121.8l4.4-.5c.6,1.6,2.4,2.2,4.9,2.2h.2c3.3,0,4.1-1.2,4.1-2.5h0c0-4.1-13.1-1-13.1-7.7v-.2c0-3.4,3.4-5.1,8.2-5.1h.2c4.2,0,7.6,1.6,8.2,5.6l-4,.3c-.4-2.5-2.5-3.1-4.4-3.1h-.2c-2.6,0-3.8.9-3.8,2.2h0c0,3.5,12.8.7,12.8,8.1h0c0,3.6-2.2,5.6-8.2,5.6h-.1c-5.7,0-8.5-1.8-9.1-5h0Z"/>
          <path class="st2" d="M389.1,120.3v-8.2h-3.8v-3.5h3.9v-7h4.5v7h3.8v3.5h-3.8v7.5c0,2,.5,2.8,2,2.8h1.3v3.8h-1.9c-4.1,0-5.9-1.8-5.9-5.9h0Z"/>
          <path class="st2" d="M411,122.5c-1,2.4-3.8,4.2-6.6,4.2h-.3c-3.7,0-6.1-1.8-6.1-5v-.2c0-3.7,2.7-5,7.7-5.7l5.2-.6v-.2c0-2.3-1.4-3.6-3.7-3.6h-.2c-2,0-3.7.7-4.1,3.1l-4.1-.8c.9-3.9,4.3-5.6,8.3-5.6h.3c5.3,0,8.1,2.2,8.1,6.8v11.4h-4.4v-3.7h0ZM410.8,117.5l-3.9.5c-3.1.4-4.2,1.3-4.2,2.9v.2c0,1.2,1,2.4,2.9,2.4h.3c2.4,0,4.6-2.1,5-5.9h0Z"/>
          <path class="st2" d="M431.8,123.5c-1,1.9-2.7,3.2-5.8,3.2h-.3c-4.6,0-7.8-3-7.8-9.5v-.3c0-5.4,3.3-8.9,7.7-8.9h.4c2.6,0,4.5,1.2,5.8,3.2v-10.1h4.6v25h-4.6v-2.7h0ZM431.8,118.7v-2.4c-.2-2-1.7-4.4-4.5-4.4h-.2c-3,0-4.6,2-4.6,5.1v.2c0,3.4,1.5,5.4,4.7,5.4h.2c2.6,0,4.1-1.8,4.4-4h0Z"/>
          <path class="st2" d="M438.9,117.9v-.4c0-5.6,3.5-9.5,9.6-9.5h.4c6,0,9.1,3.7,9.1,9.1v.3c0,5.3-3.1,9.3-9.5,9.3h-.3c-6.3,0-9.4-3.7-9.4-8.9h0ZM453.6,117.4v-.2c0-2.9-1.4-5.3-4.9-5.3h-.3c-3.5,0-5.2,2.2-5.2,5.4v.3c0,3,1.5,5.3,5,5.3h.2c3.7,0,5.2-2.5,5.2-5.5h0Z"/>
        </g>
        <path class="st2" d="M350.4,101.9h16v4.2h-11.4v6.1h10.9v3.4h-10.9v6.4h11.4v4.2h-16v-24.3h0Z"/>
      </g>
    </g>
  </g>
  <g>
    <path class="st2" d="M30.9,264.2c0,6.5-4.1,12-11.2,12h-7.2v9.6H-.4v-33.7h20c7.2,0,11.2,5.5,11.2,12M18,264.6c0-2.5-1.5-3.6-3.2-3.6h-2.4v7.2h2.4c1.8,0,3.2-1.1,3.2-3.6"/>
    <path class="st2" d="M64.7,252.2v19.3c0,8.9-6.4,15.2-16.8,15.2s-16.8-6.4-16.8-15.2v-19.2h12.8v18.5c0,4,1.2,5.6,4,5.6s4-1.6,4-5.6v-18.4h12.8Z"/>
    <polygon class="st2" points="79.3 261.8 79.3 265 87.3 265 87.3 273.1 79.3 273.1 79.3 276.3 89.7 276.3 89.7 285.9 66.5 285.9 66.5 252.2 89.7 252.2 89.7 261.8 79.3 261.8"/>
    <path class="st2" d="M122.8,275.8c0,5.8-4.3,10.1-11.5,10.1h-19.8v-33.7h18.1c7.2,0,11.6,3.5,11.6,9.3s-1.3,5-3.2,6.8c2.8,1.5,4.8,4.2,4.8,7.5M104.3,265.8h1.5c1.4,0,2.6-.8,2.6-2.4s-1.1-2.4-2.6-2.4h-1.5v4.8h0ZM109.9,274.7c0-1.6-1.6-2.4-3.8-2.4h-1.9v4.8h1.9c2.1,0,3.8-.8,3.8-2.4"/>
    <polygon class="st2" points="146.6 276.3 146.6 285.9 123.3 285.9 123.3 252.2 136.2 252.2 136.2 276.3 146.6 276.3"/>
    <path class="st2" d="M184.4,285.9h-12.8l-1.4-4h-10.1l-1.4,4h-12.8l13.4-33.7h11.7l13.4,33.7h0ZM167.1,272.3l-1.9-5.7-1.9,5.7h3.8Z"/>
    <path class="st0" d="M115.8,222.7c-7.6,0-13.8,5.9-13.8,13.2s6.2,13.2,13.8,13.2,13.8-5.9,13.8-13.2-6.2-13.2-13.8-13.2M124.4,236.3c-.6,1-1.4,1.8-2.1,2.7-2.1,2.3-4.3,4.6-6.4,7-2.1-2.3-4.3-4.6-6.4-7-.8-.8-1.5-1.7-2.1-2.7s-1-2.2-.9-3.4c.1-1.8,1.4-3.4,2.9-4,1.2-.5,2.9-.3,4,.4,1.2.7,2.1,1.6,2.5,3.1.4-1.5,1.2-2.3,2.4-3.1,1.2-.7,2.9-.9,4.1-.4,1.5.6,2.8,2.1,2.9,4,0,1.2-.3,2.4-.9,3.4"/>
    <path class="st2" d="M11.4,236.9c0,3.2-2.1,5.7-5.8,5.7h-3.6v5.9H-.4v-17.1h5.3c4.5,0,6.5,2.2,6.5,5.5M9,237c0-2.2-1.6-3.2-3.4-3.2h-3.5v6.3h3.6c1.8,0,3.3-.9,3.3-3.1"/>
    <path class="st2" d="M29.6,240c0,4.8-3.9,8.8-8.8,8.8s-8.8-3.9-8.8-8.8,3.9-8.8,8.8-8.8,8.8,3.9,8.8,8.8M27.2,240c0-3.5-2.8-6.3-6.3-6.3s-6.3,2.8-6.3,6.3,2.8,6.3,6.3,6.3,6.3-2.8,6.3-6.3"/>
    <path class="st2" d="M40.5,248.5l-4.2-5.9h-2.7v5.9h-2.4v-17.1h5.3c4.5,0,6.5,2.2,6.5,5.5s-1.5,4.8-4,5.5l4.4,6.1h-2.9,0ZM33.5,240.2h3.6c1.8,0,3.3-.9,3.3-3.1s-1.5-3.2-3.2-3.2h-3.7v6.3Z"/>
    <path class="st0" d="M71.9,248.5h-9.6l-1-3h-7.6l-1,3h-9.6l10-25.2h8.8l10,25.2h0ZM58.9,238.3l-1.4-4.3-1.4,4.3h2.9Z"/>
    <polygon class="st0" points="102.5 248.5 93.5 248.5 93 237.1 90 248.5 82.8 248.5 79.7 237.1 79.2 248.5 70.2 248.5 72 223.3 82.2 223.3 86.4 237.1 91.2 223.3 100.7 223.3 102.5 248.5"/>
    <path class="st0" d="M155.2,248.5h-10.8l-4.8-7.2v7.2h-9.6v-25.2h15c5.4,0,8.4,4.1,8.4,9s-1.6,6.6-4.4,8.1l6.2,8.1h0ZM143.8,232.6c0-1.8-1.1-2.7-2.4-2.7h-1.8v5.4h1.8c1.3,0,2.4-.8,2.4-2.7"/>
    <path class="st2" d="M166.3,244.9h-7.7l-1.6,3.7h-2.6l8.1-17.5,8.1,17.5h-2.6l-1.6-3.7h0ZM165.2,242.4l-2.7-6-2.7,6h5.5,0Z"/>
  </g>
  <g>
    <path class="st2" d="M310.8,221.8c3.5,0,6.4,1.1,8.8,3.3,2.3,2.2,3.5,5.1,3.5,8.8s-1.2,6.6-3.5,8.8c-2.3,2.2-5.3,3.3-8.8,3.3h-3.9v9.6h-9.6v-33.8h13.5,0ZM310.8,236.7c.7,0,1.4-.2,1.9-.8.5-.5.8-1.2.8-2s-.3-1.5-.8-2c-.5-.5-1.1-.8-1.9-.8h-3.9v5.5h3.9Z"/>
    <path class="st2" d="M331.5,247c.8,1.6,2.3,2.4,4.8,2.4s2.8-.5,4-1.5l5.7,4.8c-2.3,2.5-5.7,3.8-10,3.8s-7.2-1.2-9.7-3.5c-2.4-2.3-3.7-5.3-3.7-8.8s1.2-6.6,3.6-8.9,5.4-3.6,9-3.6,6.5,1.2,8.8,3.5c2.3,2.3,3.5,5.3,3.5,8.8s-.1,2.1-.4,3.1h-15.6,0ZM331.4,241.4h7.9c-.5-1.9-1.8-2.8-3.8-2.8s-3.4.9-4.1,2.8"/>
    <path class="st2" d="M363.5,231.6c2.6,0,4.6.9,6.2,2.7,1.6,1.8,2.3,4.4,2.3,7.9v13.6h-8.7v-12.7c0-2.1-1-3.1-2.9-3.1s-1.8.3-2.4,1c-.6.7-.8,1.6-.8,2.7v12.1h-8.7v-23.5h8.7v2.3c1.4-2,3.5-3,6.3-3"/>
    <path class="st2" d="M382.3,239.2c0,.4.3.7.9.9s1.3.4,2.2.5c.9.1,1.8.3,2.8.6s1.9.7,2.8,1.2c.9.5,1.6,1.2,2.2,2.2s.9,2.2.9,3.7-.3,2.8-1,3.9c-.7,1.1-1.6,2-2.7,2.5s-2.2,1-3.4,1.2c-1.2.3-2.3.4-3.6.4-5.7,0-9.3-1.9-11-5.6l7.6-3.4c.6,1.6,1.7,2.4,3.3,2.4s1.6-.4,1.6-1-.4-.7-1.2-1c-.8-.2-1.7-.5-2.8-.8-1.1-.3-2.2-.6-3.3-1.1-1.1-.5-2.1-1.2-2.8-2.3-.8-1.1-1.2-2.4-1.2-4,0-2.6,1-4.6,2.9-6,2-1.4,4.2-2.1,6.8-2.1,5.1,0,8.5,2,10.2,6l-7.2,2.6c-.6-1.3-1.4-2-2.6-2s-1.5.3-1.5,1"/>
    <path class="st2" d="M411,232.3h8.7v23.5h-8.7v-2.1c-1.5,1.9-3.6,2.8-6.3,2.8s-5.8-1.2-7.8-3.5c-2-2.4-3-5.3-3-8.9s1-6.5,3-8.9,4.6-3.5,7.8-3.5,4.8.9,6.3,2.8v-2.1h0ZM403.8,247.2c.8.9,1.8,1.3,3,1.3s2.3-.4,3-1.3c.8-.9,1.1-1.9,1.1-3.1s-.4-2.3-1.1-3.1c-.8-.9-1.8-1.3-3-1.3s-2.3.4-3,1.3c-.8.9-1.1,1.9-1.1,3.1s.4,2.3,1.1,3.1"/>
    <path class="st2" d="M430.6,236.8c.4-1.6,1.3-2.8,2.6-3.7,1.3-.9,2.8-1.3,4.5-1.3v9.4c-1.9-.2-3.5.1-4.9,1.1s-2.1,2.6-2.1,4.7v5.1h-8.7v-19.9h8.7v4.6h0Z"/>
    <path class="st2" d="M346.1,267.7c.4-1.6,1.3-2.8,2.6-3.7,1.3-.9,2.8-1.3,4.5-1.3v9.4c-1.9-.2-3.5.1-4.9,1.1s-2.1,2.6-2.1,4.7v8.8h-8.7v-23.5h8.7v4.6h0Z"/>
    <path class="st2" d="M369.7,263.1h8.7v23.5h-8.7v-2.1c-1.5,1.9-3.6,2.8-6.3,2.8s-5.8-1.2-7.8-3.5c-2-2.4-3-5.3-3-8.9s1-6.5,3-8.9,4.6-3.5,7.8-3.5,4.8.9,6.3,2.8v-2.1h0ZM362.4,278c.8.9,1.8,1.3,3,1.3s2.3-.4,3-1.3c.8-.9,1.2-1.9,1.2-3.1s-.4-2.3-1.2-3.1c-.8-.9-1.8-1.3-3-1.3s-2.3.4-3,1.3-1.2,1.9-1.2,3.1.4,2.3,1.2,3.1"/>
    <path class="st2" d="M395.5,262.5c2.6,0,4.6.9,6.2,2.7,1.6,1.8,2.3,4.4,2.3,7.9v13.6h-8.7v-12.7c0-2.1-1-3.1-2.9-3.1s-1.8.3-2.4,1-.8,1.6-.8,2.7v12.1h-8.7v-23.5h8.7v2.3c1.4-2,3.6-3,6.3-3"/>
    <path class="st2" d="M421.8,253.7h8.7v32.9h-8.7v-2.1c-1.5,1.9-3.6,2.8-6.3,2.8s-5.8-1.2-7.8-3.5c-2-2.4-3-5.3-3-8.9s1-6.5,3-8.9,4.6-3.5,7.8-3.5,4.8.9,6.3,2.8v-11.5h0ZM414.6,278c.8.9,1.8,1.3,3,1.3s2.3-.4,3-1.3c.8-.9,1.1-1.9,1.1-3.1s-.4-2.3-1.1-3.1c-.8-.9-1.8-1.3-3-1.3s-2.3.4-3,1.3c-.8.9-1.1,1.9-1.1,3.1s.4,2.3,1.1,3.1"/>
    <path class="st2" d="M440.3,277.8c.8,1.6,2.4,2.4,4.8,2.4s2.8-.5,4-1.5l5.7,4.8c-2.4,2.5-5.7,3.8-10,3.8s-7.2-1.2-9.7-3.5c-2.4-2.3-3.6-5.3-3.6-8.8s1.2-6.6,3.6-8.9c2.4-2.4,5.4-3.6,9-3.6s6.5,1.2,8.8,3.5c2.3,2.3,3.5,5.3,3.5,8.8s-.1,2.1-.4,3.1h-15.6,0ZM440.2,272.2h7.9c-.5-1.9-1.8-2.8-3.8-2.8s-3.4.9-4.1,2.8"/>
    <path class="st2" d="M309.3,272c.4-.3.9-.7,1.3-1,0,0,0,0,.2-.2h0c0-2.4.7-4.3,2.2-5.8,1.4-1.4,3.2-2.2,5.4-2.2,2.4-2.6,5-5.3,7.2-7.6-2.2-1-4.6-1.5-7.2-1.5-4.8,0-8.8,1.6-12,4.9-3.2,3.3-4.8,7.3-4.8,12.1s.2,3.6.7,5.2c1.5-.4,3-1.1,4.4-2,.9-.6,1.8-1.2,2.7-1.9"/>
    <path class="st2" d="M324.7,265.7l7.9-4.5c-1-1.5-2.2-2.9-3.6-4-1.7,1.9-4,4.2-6.2,6.6.8.5,1.4,1.1,2,1.9"/>
    <path class="st2" d="M318.9,267.7c-.2.2-.4.4-.5.5v7.3h6.9c-1.1,2.3-3.2,3.4-6.4,3.4s-4.8-.8-6.2-2.5c-.4-.5-.8-1.1-1.1-1.7,0,0,0,0,0,0-1,.8-1.9,1.5-3,2.1-1,.7-2.2,1.3-3.3,1.8-.5.2-1,.4-1.6.6.7,1.2,1.6,2.3,2.6,3.3,3.2,3.2,7.3,4.8,12.4,4.8s8.8-1.5,11.7-4.5c3-3,4.5-6.9,4.5-11.5v-3.9h-16,0Z"/>
    <path class="st3" d="M328.9,257.2c.5-.6,1-1.1,1.4-1.5,0,0,0,0,0,0s0,0,0,0c0,0,0,0,0,0v-5.6c-.1.1-2.1,2.2-4.8,5.1.4.2.8.4,1.1.6.8.5,1.6,1,2.3,1.5"/>
    <path class="st3" d="M301,276.1c-.4,0-.9,0-1.3,0-.4,0-.6-.1-.8-.3-.2-.1-.3-.3-.5-.6s-.3-.7-.4-1.2c-.2-.9-.3-2-.5-3.2,0-.6-.2-1.2-.3-1.9s-.3-1.4-.7-2.1c-.3-.7-1-1.6-1.8-2.1-.9-.6-1.8-.8-2.7-.8-.2,0-.4,0-.6,0-.2,0-.4,0-.7,0-.4,0-.9.2-1.2.3-.8.3-1.4.7-2,1.1-1.2.8-2.1,1.8-2.9,2.8,0,0,0,0,0,0,.3-1.3.6-2.6.9-4l-4.3-1.8h0c-.6,1.1-1.4,2.1-2.3,3.1-.9,1-1.8,2-2.9,2.9-2,1.8-4.2,3.5-6.6,4.7-1.2.6-2.4,1.1-3.6,1.5-1.2.3-2.3.4-2.9,0-.3-.1-.5-.3-.7-.7-.2-.3-.3-.6-.4-1,2.7-.8,5.3-2.1,7.5-4.1,1.2-1.1,2.3-2.3,3.1-3.8.4-.8.7-1.6.9-2.5.2-.9.2-2.1-.4-3.2-.3-.5-.6-1-1.1-1.4-.5-.4-1-.7-1.4-.8-.2,0-.5-.2-.7-.2-.3,0-.6-.1-.8-.1-.6,0-1.1,0-1.6.2-1,.3-1.8.7-2.5,1.2-.7.5-1.3,1.1-1.9,1.7-1.1,1.2-2,2.5-2.7,3.9s-1.3,2.9-1.7,4.4c-.4,1.5-.6,3.2-.4,5,.1.9.4,1.8.9,2.7.2.4.5.9.9,1.3.4.4.8.8,1.3,1,1,.5,2,.7,2.9.7s1.8-.1,2.6-.3c1.6-.4,3.1-1,4.4-1.7,2.7-1.4,5.2-3.1,7.6-5,.1,0,.2-.2.3-.3-.2.8-.4,1.6-.5,2.4-.8,3.5-1.6,7.1-2.4,10.6l4.2,1.2c.7-2.1,1.6-4.2,2.5-6.3.9-2,2-4.1,3.1-5.9.6-.9,1.2-1.8,1.8-2.6.6-.8,1.4-1.5,2.1-2.1.3-.3.7-.5,1-.6.2,0,.3,0,.4-.1,0,0,.1,0,.2,0h.3c.3,0,.5,0,.6.1.1,0,.2.2.4.5.3.6.5,1.6.7,2.7.2,1.1.3,2.3.6,3.6s.4,1.4.8,2.1c.4.7,1,1.5,1.8,2,.8.5,1.7.8,2.5.9.8.1,1.5,0,2.2,0,.8,0,1.6-.3,2.3-.5-.7-1.1-1.2-2.3-1.5-3.6-.4.1-.8.2-1.2.2M262.1,268.8c.6-2.5,1.8-4.9,3.5-6.8.8-.9,1.8-1.7,2.6-1.9.7-.2,1.6.2,1.7.5.1.2.1.6,0,1,0,.5-.3,1-.6,1.5-.5,1-1.4,2-2.3,2.8-1.4,1.2-3.1,2.2-5,2.9,0,0,0,0,0,0"/>
    <path class="st1" d="M330.3,255.7s0,0,0,0c0,0,0,0,0,0"/>
    <path class="st3" d="M318.3,262.8c-3.6,3.8-6.8,7.2-7.6,8,0,1.5.3,2.9.9,4.1.5-.4.9-.7,1.3-1.1.2-.1,2.5-2.5,5.4-5.5v-.5h.5c1.2-1.2,2.5-2.6,3.8-3.9-1.1-.7-2.5-1-4.2-1h-.2"/>
    <path class="st2" d="M308.6,277.1c1-.7,2-1.4,3-2.1,0,0,0,0,0,0-.6-1.2-.9-2.6-.9-4.1,0,0-.2.1-.2.2-.4.4-.8.7-1.3,1-.9.7-1.8,1.3-2.7,1.9-1.4.9-3,1.6-4.4,2,.4,1.3.9,2.5,1.5,3.6.5-.2,1.1-.4,1.6-.6,1.2-.5,2.3-1.1,3.3-1.8"/>
    <path class="st3" d="M318.5,262.8c1.7,0,3.1.4,4.2,1,2.2-2.3,4.5-4.7,6.2-6.6-.7-.5-1.5-1-2.3-1.5-.4-.2-.8-.4-1.1-.6-2.2,2.3-4.8,5-7.2,7.6h.2"/>
    <path class="st3" d="M318.4,268.3c.2-.2.3-.4.5-.5h-.5v.5Z"/>
  </g>
</svg>